<svg version="1.1" xmlns="http://www.w3.org/2000/svg" xmlns:xlink="http://www.w3.org/1999/xlink" preserveAspectRatio="xMaxYMax meet">
    <!-- icons -->

  <symbol id="account" viewBox="0 0 64 64" fill="#000000">
    <path d="M42.6153846,32.4076923 C43.8538462,30.1076923 44.3846154,27.6307692 44.3846154,25.1538462 C44.3846154,17.3692308 38.9,11 32,11 C25.1,11 19.6153846,17.3692308 19.6153846,25.1538462 C19.6153846,27.8076923 20.3230769,30.4615385 21.5615385,32.7615385 C10.4153846,38.6 10.7692308,53.4615385 10.7692308,53.4615385 L53.2307692,53.4615385 C53.2307692,53.4615385 54.4692308,38.0692308 42.6153846,32.4076923 Z M23.1538462,25.1538462 C23.1538462,19.3153846 27.2230769,14.5384615 32,14.5384615 C36.7769231,14.5384615 40.8461538,19.3153846 40.8461538,25.1538462 C40.8461538,27.2769231 40.3153846,29.4 39.2538462,31.3461538 C38.5461538,32.5846154 37.6615385,33.6461538 36.4230769,34.3538462 C33.7692308,36.3 30.2307692,36.3 27.5769231,34.5307692 C26.5153846,33.8230769 25.4538462,32.7615385 24.7461538,31.5230769 C23.6846154,29.5769231 23.1538462,27.4538462 23.1538462,25.1538462 Z M15.1923077,49.9230769 C15.3692308,45.8538462 16.7846154,42.1384615 19.2615385,38.9538462 C20.5,37.5384615 22.0923077,36.4769231 23.8615385,35.5923077 C27.9307692,40.1923077 35.0076923,40.5461538 39.6076923,36.3 C39.9615385,35.9461538 40.3153846,35.7692308 40.4923077,35.4153846 C42.4384615,36.1230769 44.0307692,37.3615385 45.2692308,38.9538462 C47.5692308,42.1384615 48.9846154,45.8538462 48.9846154,49.9230769 L15.1923077,49.9230769 Z" ></path>
  </symbol>

  <symbol id="down-arrow" viewBox="0 0 64 64">
    <polygon points="55.5 24.2333333 32.25 48 9 24.2333333 15.975 17 32.25 33.7916667 48.525 17"></polygon>
  </symbol>

  <symbol id="dropdown" viewBox="0 0 64 64">
    <path d="M19,22.225 L32,9 L45,22.225 L41.1,26.25 L32,16.90625 L22.9,26.25 L19,22.225 Z M45,41.775 L32,55 L19,41.775 L22.9,37.75 L32,47.09375 L41.1,37.75 L45,41.775 Z" id="path-1"></path>
  </symbol>

  <symbol id="left-arrow" viewBox="0 0 64 64" >
    <polygon points="40.7666667 55.5 17 32.25 40.7666667 9 48 15.975 31.2083333 32.25 48 48.525"></polygon>
  </symbol>

  <symbol id="right-arrow" viewBox="0 0 64 64" >
    <polygon points="24.2333333 9 48 32 24.2333333 55 17 48.1 33.7916667 32 17 15.9"></polygon>
  </symbol>

  <symbol id="up-arrow" viewBox="0 0 64 64">
    <polygon id="path-1" points="9 40.7666667 32.25 17 55.5 40.7666667 48.525 48 32.25 31.2083333 15.975 48"></polygon>
  </symbol>

  <symbol id="cart" viewBox="0 0 64 64">
    <path d="M19.7333333,18.6 L55,18.6 L55,23.2 L50.4,35.4666667 L24.552381,35.4666667 L25.8666667,40.0666667 L48.8666667,40.0666667 L47.3333333,44.6666667 L45.5541033,44.6666667 C45.7139054,45.143029 45.8,45.6582692 45.8,46.2 C45.8,48.8066667 43.8066667,50.8 41.2,50.8 C38.5933333,50.8 36.6,48.8066667 36.6,46.2 C36.6,45.6582692 36.6860946,45.143029 36.8458967,44.6666667 L33.2874367,44.6666667 C33.4472387,45.143029 33.5333333,45.6582692 33.5333333,46.2 C33.5333333,48.8066667 31.54,50.8 28.9333333,50.8 C26.3266667,50.8 24.3333333,48.8066667 24.3333333,46.2 C24.3333333,45.6582692 24.419428,45.143029 24.57923,44.6666667 L22.6466667,44.6666667 L21.2666667,40.0666667 L15.1333333,18.6 L9,18.6 L9,14 L18.2,14 L19.7333333,18.6 Z M21.047619,23.2 L23.2380952,30.8666667 L47.3333333,30.8666667 L50.4,23.2 L21.047619,23.2 Z M41.2,44.6666667 C40.28,44.6666667 39.6666667,45.28 39.6666667,46.2 C39.6666667,47.12 40.28,47.7333333 41.2,47.7333333 C42.12,47.7333333 42.7333333,47.12 42.7333333,46.2 C42.7333333,45.28 42.12,44.6666667 41.2,44.6666667 Z M28.9333333,44.6666667 C28.0133333,44.6666667 27.4,45.28 27.4,46.2 C27.4,47.12 28.0133333,47.7333333 28.9333333,47.7333333 C29.8533333,47.7333333 30.4666667,47.12 30.4666667,46.2 C30.4666667,45.28 29.8533333,44.6666667 28.9333333,44.6666667 Z" id="path-1"></path>
  </symbol>

  <symbol id="external-link" viewBox="0 0 64 64">
		<path d="M576 24v127.984c0 21.461-25.96 31.98-40.971 16.971l-35.707-35.709-243.523 243.523c-9.373 9.373-24.568 9.373-33.941 0l-22.627-22.627c-9.373-9.373-9.373-24.569 0-33.941L442.756 76.676l-35.703-35.705C391.982 25.9 402.656 0 424.024 0H552c13.255 0 24 10.745 24 24zM407.029 270.794l-16 16A23.999 23.999 0 0 0 384 303.765V448H64V128h264a24.003 24.003 0 0 0 16.97-7.029l16-16C376.089 89.851 365.381 64 344 64H48C21.49 64 0 85.49 0 112v352c0 26.51 21.49 48 48 48h352c26.51 0 48-21.49 48-48V287.764c0-21.382-25.852-32.09-40.971-16.97z"></path>
	</symbol>

  <symbol id="close" viewBox="0 0 64 64">
    <path d="M41.2,32 L55,45.8 L45.8,55 L32,41.2 L18.2,55 L9,45.8 L22.8,32 L9,18.2 L18.2,9 L32,22.8 L45.8,9 L55,18.2 L41.2,32 Z"></path>
  </symbol> 

  <symbol id="collapse" viewBox="0 0 64 64">
    <rect id="path-1" x="8" y="26" width="46" height="12"></rect>
  </symbol> 

  <symbol id="contact" viewBox="0 0 64 64">
    <path d="M51.1666667,22.2272727 L37.8384615,31.9205128 L51.1666667,41.9166667 L51.1666667,43.8333333 L51.1666667,22.2272727 Z M48.702381,43.8333333 L35.537472,33.5939597 L32,36.1666667 L28.462528,33.5939597 L15.297619,43.8333333 L48.702381,43.8333333 Z M12.8333333,43.8333333 L12.8333333,41.9166667 L26.1615385,31.9205128 L12.8333333,22.2272727 L12.8333333,43.8333333 Z M15.5714286,20.8333333 L32,32.3333333 L48.4285714,20.8333333 L15.5714286,20.8333333 Z M55,17 L55,47.6666667 L9,47.6666667 L9,17 L55,17 Z"></path>
  </symbol>

  <symbol id="delete" viewBox="0 0 64 64">
    <path d="M31.9997125,27.9357563 L38.0988813,21.8365875 L42.1647063,25.9024125 L36.0655375,32.0015813 L42.163125,38.0991687 L38.0973,42.1649937 L31.9997125,36.0674063 L25.9014063,42.1657125 L21.8355813,38.0998875 L27.9338875,32.0015813 L21.834,25.9016937 L25.899825,21.8358687 L31.9997125,27.9357563 Z M32,9 C44.65,9 55,19.35 55,32 C55,44.65 44.65,55 32,55 C19.35,55 9,44.65 9,32 C9,19.35 19.35,9 32,9 Z M32,11.875 C20.93125,11.875 11.875,20.93125 11.875,32 C11.875,43.06875 20.93125,52.125 32,52.125 C43.06875,52.125 52.125,43.06875 52.125,32 C52.125,20.93125 43.06875,11.875 32,11.875 Z"></path>
  </symbol>

  <symbol id="division" viewBox="0 0 64 64">
    <path d="M19,34 L19,36 L24,36 L24,49 L11,49 L11,36 L16,36 L16,31 L31,31 L31,29 L26,29 L26,16 L39,16 L39,29 L34,29 L34,31 L49,31 L49,36 L54,36 L54,49 L41,49 L41,36 L46,36 L46,34 L34,34 L34,36 L39,36 L39,49 L26,49 L26,36 L31,36 L31,34 L19,34 Z M29,19 L29,26 L36,26 L36,19 L29,19 Z M29,39 L29,46 L36,46 L36,39 L29,39 Z M44,39 L44,46 L51,46 L51,39 L44,39 Z M14,39 L14,46 L21,46 L21,39 L14,39 Z"></path>
  </symbol>

  <symbol id="download" viewBox="0 0 32 32">
    <path fill-rule="evenodd" clip-rule="evenodd" d="M4 8H5.5V13H14.5V8H16V13H25.5V8H27V13V14.5H25.5H16V20.5498L18.4607 18L19.5 19.1154L15.2686 23.5L11 19.1154L12.0393 18L14.5 20.5205V14.5H5.5H4V13V8Z" />   
  </symbol>

  <symbol id="event-calendar" viewBox="0 0 64 64">
    <path d="M29.2941178,45.13125 L25.6411766,41.503125 L27.5352943,39.621875 L29.2941178,41.36875 L36.4647061,34.246875 L38.3588238,36.128125 L29.2941178,45.13125 Z M42,15.03125 L55.0000004,15.03125 L55.0000004,54 L9,54 L9,15.03125 L10,15.03125 L22,15.03125 L22,11 L25,11 L25,15.03125 L39,15.03125 L39,11 L42,11 L42,15.03125 Z M42,18 L42,22 L39,22 L39,18 L25,18 L25,22 L22,22 L22,18 L12,18 L12,26 L52,26 L52,18 L42,18 Z M52,29 L12,29 L12,51 L52,51 L52,29 Z"></path>
  </symbol>

  <symbol id="expand" viewBox="0 0 64 64">
    <path d="M25,26 L25,8 L37,8 L37,26 L54,26 L54,38 L37,38 L37,54 L25,54 L25,38 L8,38 L8,26 L25,26 Z"></path>
  </symbol>

  <symbol id="ex-link" viewBox="0 0 64 64">
    <path d="M13,53 L9,53 L9,7 L13,7 L32,7 L32,11 L13,11 L13,49 L51,49 L51,30 L55,30 L55,53 L51,53 L13,53 Z M50.1909091,14.7363636 L34.0909091,30.8363636 L31.1636364,27.9090909 L47.2636364,11.8090909 L42.4545455,7 L55,7 L55,19.5454545 L50.1909091,14.7363636 Z"></path>
  </symbol>

  <symbol id="filter" viewBox="0 0 64 64">
    <path d="M44.1666667,18.5833333 L44.1666667,39.6666667 L40.2777778,39.6666667 L40.2777778,18.5833333 L34.4444444,18.5833333 L42.2222222,9 L50,18.5833333 L44.1666667,18.5833333 Z M20.8333333,45.4166667 L20.8333333,24.3333333 L24.7222222,24.3333333 L24.7222222,45.4166667 L30.5555556,45.4166667 L22.7777778,55 L15,45.4166667 L20.8333333,45.4166667 Z"></path>
  </symbol>

  <symbol id="greenguard" viewBox="0 0 64 64">
    <path d="M19,9 L45,9 C48.3137085,9 51,11.6862915 51,15 L51,49 C51,52.3137085 
    48.3137085,55 45,55 L19,55 C15.6862915,55 13,52.3137085 13,49 L13,15 C13,11.6862915 15.6862915,9 19,9 Z M19,10 C16.2385763,10 14,12.2385763 14,15 L14,49 C14,51.7614237 
    16.2385763,54 19,54 L45,54 C47.7614237,54 50,51.7614237 50,49 L50,15 C50,12.2385763 47.7614237,10 45,10 L19,10 Z M15,38 L49,38 L49,39 L15,39 L15,38 Z M16.4827601,33.5832051 
    L17.8698582,33.5832051 L17.8698582,35.3959989 C17.6450515,35.4693401 17.4334016,35.5207579 17.2349021,35.5502538 C17.0364026,35.5797497 16.8335216,35.5944974 16.626253,35.5944974 
    C16.0985153,35.5944974 15.6955434,35.4394469 15.4173252,35.1293412 C15.139107,34.8192356 15,34.3740134 15,33.7936614 C15,33.2292531 15.1614279,32.7892126 15.4842886,32.4735266 
    C15.8071492,32.1578406 16.2547629,32 16.8271431,32 C17.1858771,32 17.531851,32.0717457 17.8650751,32.2152394 L17.6187456,32.8083434 C17.3636459,32.6807935 17.0981866,32.6170195 
    16.82236,32.6170195 C16.5018909,32.6170195 16.2452006,32.7246381 16.0522814,32.9398786 C15.8593621,33.155119 15.762904,33.4444935 15.762904,33.8080107 C15.762904,34.1874716 
    15.8406285,34.4772447 15.99608,34.6773386 C16.1515314,34.8774325 16.3775305,34.9774779 16.674084,34.9774779 C16.8287382,34.9774779 16.9857817,34.9615344 17.145219,34.9296469 
    L17.145219,34.2002246 L16.4827601,34.2002246 L16.4827601,33.5832051 Z M19.4434972,33.6023375 L19.682652,33.6023375 C19.9170249,33.6023375 20.0900119,33.5632759 20.201618,33.4851516 
    C20.3132242,33.4070273 20.3690264,33.2842624 20.3690264,33.1168532 C20.3690264,32.9510383 20.3120284,32.8330564 20.1980307,32.762904 C20.084033,32.6927515 19.9074588,32.6576758 19.6683027,32.6576758 
    L19.4434972,32.6576758 L19.4434972,33.6023375 Z M19.4434972,34.2050077 L19.4434972,35.5466665 L18.7021171,35.5466665 L18.7021171,32.0502225 L19.7209168,32.0502225 C20.1960401,32.0502225 
    20.5475943,32.136716 20.7755897,32.3097055 C21.0035851,32.4826951 21.1175811,32.7453642 21.1175811,33.0977208 C21.1175811,33.303395 21.0609817,33.4863466 20.9477812,33.6465812 C20.8345807,33.8068157 
    20.6743485,33.9323708 20.4670799,34.0232501 C20.9932232,34.8092763 21.3360084,35.3170767 21.4954458,35.5466665 L20.6727531,35.5466665 L19.8381027,34.2050077 L19.4434972,34.2050077 Z M23.9491746,35.5466665 
    L21.9354907,35.5466665 L21.9354907,32.0502225 L23.9491746,32.0502225 L23.9491746,32.6576758 L22.6768708,32.6576758 L22.6768708,33.4253629 L23.8606873,33.4253629 L23.8606873,34.0328162 L22.6768708,34.0328162 
    L22.6768708,34.93443 L23.9491746,34.93443 L23.9491746,35.5466665 Z M26.6922807,35.5466665 L24.6785969,35.5466665 L24.6785969,32.0502225 L26.6922807,32.0502225 L26.6922807,32.6576758 
    L25.4199769,32.6576758 L25.4199769,33.4253629 L26.6037935,33.4253629 L26.6037935,34.0328162 L25.4199769,34.0328162 L25.4199769,34.93443 L26.6922807,34.93443 L26.6922807,35.5466665 Z 
    M30.5235415,35.5466665 L29.5812714,35.5466665 L28.0602465,32.9016138 L28.0387226,32.9016138 C28.0690157,33.3687653 28.084162,33.7019844 28.084162,33.9012811 L28.084162,35.5466665 
    L27.421703,35.5466665 L27.421703,32.0502225 L28.3567985,32.0502225 L29.8754318,34.6689682 L29.8921727,34.6689682 C29.8682571,34.2145717 29.8562994,33.8933102 29.8562994,33.7051741 
    L29.8562994,32.0502225 L30.5235415,32.0502225 L30.5235415,35.5466665 Z M32.7309408,33.5832051 L34.1180389,33.5832051 L34.1180389,35.3959989 C33.8932322,35.4693401 33.6815823,35.5207579 
    33.4830828,35.5502538 C33.2845833,35.5797497 33.0817023,35.5944974 32.8744337,35.5944974 C32.346696,35.5944974 31.9437241,35.4394469 31.6655059,35.1293412 C31.3872877,34.8192356 
    31.2481807,34.3740134 31.2481807,33.7936614 C31.2481807,33.2292531 31.4096086,32.7892126 31.7324693,32.4735266 C32.0553299,32.1578406 32.5029436,32 33.0753238,32 C33.4340578,32 
    33.7800317,32.0717457 34.1132558,32.2152394 L33.8669263,32.8083434 C33.6118265,32.6807935 33.3463673,32.6170195 33.0705407,32.6170195 C32.7500716,32.6170195 32.4933813,32.7246381 
    32.300462,32.9398786 C32.1075428,33.155119 32.0110847,33.4444935 32.0110847,33.8080107 C32.0110847,34.1874716 32.0888092,34.4772447 32.2442607,34.6773386 C32.3997121,34.8774325 
    32.6257112,34.9774779 32.9222647,34.9774779 C33.0769189,34.9774779 33.2339624,34.9615344 33.3933997,34.9296469 L33.3933997,34.2002246 L32.7309408,34.2002246 L32.7309408,33.5832051 
    Z M37.7962406,32.0502225 L37.7962406,34.3126274 C37.7962406,34.570916 37.7384454,34.7973136 37.6228533,34.9918272 C37.5072612,35.1863408 37.3402531,35.3354125 37.1218239,35.4390468 
    C36.9033947,35.5426811 36.64511,35.5944974 36.3469622,35.5944974 C35.8973488,35.5944974 35.5481862,35.4793057 35.2994639,35.2489187 C35.0507416,35.0185317 34.9263823,34.703249 
    34.9263823,34.3030612 L34.9263823,32.0502225 L35.6653708,32.0502225 L35.6653708,34.1906585 C35.6653708,34.4601076 35.7195787,34.657807 35.8279961,34.7837625 C35.9364135,34.909718 
    36.1157779,34.9726948 36.3660945,34.9726948 C36.6084393,34.9726948 36.7842164,34.9093194 36.893431,34.7825667 C37.0026456,34.655814 37.0572521,34.4569189 37.0572521,34.1858754 
    L37.0572521,32.0502225 L37.7962406,32.0502225 Z M40.7450199,35.5466665 L40.4915157,34.7144076 L39.2168204,34.7144076 L38.9633162,35.5466665 L38.164539,35.5466665 L39.3985781,32.0358732 
    L40.304975,32.0358732 L41.5437971,35.5466665 L40.7450199,35.5466665 Z M40.3145412,34.092605 C40.0801682,33.3384662 39.9482358,32.9119777 39.9187399,32.8131265 C39.889244,32.7142753 
    39.8681188,32.6361522 39.8553638,32.5787547 C39.8027495,32.7828346 39.6520835,33.2874463 39.4033612,34.092605 L40.3145412,34.092605 Z M42.7252221,33.6023375 L42.9643769,33.6023375 
    C43.1987499,33.6023375 43.3717368,33.5632759 43.483343,33.4851516 C43.5949491,33.4070273 43.6507514,33.2842624 43.6507514,33.1168532 C43.6507514,32.9510383 43.5937533,32.8330564 
    43.4797556,32.762904 C43.3657579,32.6927515 43.1891837,32.6576758 42.9500276,32.6576758 L42.7252221,32.6576758 L42.7252221,33.6023375 Z M42.7252221,34.2050077 L42.7252221,35.5466665 
    L41.983842,35.5466665 L41.983842,32.0502225 L43.0026417,32.0502225 C43.4777651,32.0502225 43.8293192,32.136716 44.0573146,32.3097055 C44.28531,32.4826951 44.399306,32.7453642 44.399306,33.0977208 
    C44.399306,33.303395 44.3427066,33.4863466 44.2295061,33.6465812 C44.1163056,33.8068157 43.9560734,33.9323708 43.7488048,34.0232501 C44.2749481,34.8092763 44.6177333,35.3170767 
    44.7771707,35.5466665 L43.954478,35.5466665 L43.1198276,34.2050077 L42.7252221,34.2050077 Z M47.9009484,33.7649628 C47.9009484,34.3405317 47.7371289,34.7813694 47.4094851,35.0874891 
    C47.0818414,35.3936089 46.6087181,35.5466665 45.9901011,35.5466665 L45,35.5466665 L45,32.0502225 L46.0977208,32.0502225 C46.6685065,32.0502225 47.1117358,32.2008886 47.4274218,32.5022252 
    C47.7431077,32.8035618 47.9009484,33.2244701 47.9009484,33.7649628 Z M47.1308697,33.7840952 C47.1308697,33.0331452 46.799245,32.6576758 46.1359856,32.6576758 L45.74138,32.6576758 L45.74138,34.93443 
    L46.059456,34.93443 C46.7737354,34.93443 47.1308697,34.5509889 47.1308697,33.7840952 Z M19.9199219,41.4384766 C19.9199219,41.5830085 19.870606,41.6941728 19.7719727,41.7719727 C19.6733394,41.8497725 19.5322275,41.8886719 
    19.3486328,41.8886719 L19.1806641,41.8886719 L19.1806641,42.4501953 L19.0146484,42.4501953 L19.0146484,41.0224609 L19.3847656,41.0224609 C19.7415382,41.0224609 19.9199219,41.1611314 19.9199219,41.4384766 Z M19.1806641,41.7460938 
    L19.3300781,41.7460938 C19.4772143,41.7460938 19.5836585,41.722331 19.6494141,41.6748047 C19.7151696,41.6272784 19.7480469,41.5511073 19.7480469,41.4462891 C19.7480469,41.3518875 19.7171227,41.2815758 19.6552734,41.2353516 
    C19.5934242,41.1891274 19.497071,41.1660156 19.3662109,41.1660156 L19.1806641,41.1660156 L19.1806641,41.7460938 Z M20.3847656,41.8564453 L20.3847656,42.4501953 L20.21875,42.4501953 L20.21875,41.0224609 L20.6103516,41.0224609 
    C20.7854826,41.0224609 20.9148759,41.0559892 20.9985352,41.1230469 C21.0821944,41.1901045 21.1240234,41.291015 21.1240234,41.4257812 C21.1240234,41.6145843 21.0283213,41.7421872 20.8369141,41.8085938 L21.2246094,42.4501953 
    L21.0283203,42.4501953 L20.6826172,41.8564453 L20.3847656,41.8564453 Z M20.3847656,41.7138672 L20.6123047,41.7138672 C20.7294928,41.7138672 20.8154294,41.6905927 20.8701172,41.644043 C20.924805,41.5974933 20.9521484,41.5276697 
    20.9521484,41.4345703 C20.9521484,41.3401688 20.9243167,41.2721356 20.8686523,41.2304688 C20.812988,41.1888019 20.7236334,41.1679688 20.6005859,41.1679688 L20.3847656,41.1679688 L20.3847656,41.7138672 Z M22.6943359,41.734375 
    C22.6943359,41.9628918 22.6365566,42.1425775 22.5209961,42.2734375 C22.4054356,42.4042975 22.2447927,42.4697266 22.0390625,42.4697266 C21.828775,42.4697266 21.6665045,42.4054368 21.5522461,42.2768555 C21.4379877,42.1482741 
    21.3808594,41.966798 21.3808594,41.7324219 C21.3808594,41.4999988 21.4381505,41.3198249 21.5527344,41.1918945 C21.6673183,41.0639642 21.8300771,41 22.0410156,41 C22.2460948,41 
    22.4062494,41.0651035 22.5214844,41.1953125 C22.6367193,41.3255215 22.6943359,41.5052072 22.6943359,41.734375 Z M21.5566406,41.734375 C21.5566406,41.9277353 
    21.5978186,42.074381 21.6801758,42.1743164 C21.762533,42.2742518 21.8821607,42.3242188 22.0390625,42.3242188 C22.1972664,42.3242188 22.3167314,42.2744146 
    22.3974609,42.1748047 C22.4781905,42.0751948 22.5185547,41.9283864 22.5185547,41.734375 C22.5185547,41.5423167 22.4783533,41.3966476 22.3979492,41.2973633 
    C22.3175452,41.1980789 22.1985685,41.1484375 22.0410156,41.1484375 C21.8828117,41.1484375 21.762533,41.1984044 21.6801758,41.2983398 C21.5978186,41.3982752 
    21.5566406,41.5436188 21.5566406,41.734375 Z M24.1523438,41.7226562 C24.1523438,41.9583345 24.0883795,42.1385085 23.9604492,42.2631836 C23.8325189,42.3878587 
    23.6484387,42.4501953 23.4082031,42.4501953 L23.0126953,42.4501953 L23.0126953,41.0224609 L23.4501953,41.0224609 C23.6722016,41.0224609 23.8447259,41.0839838 
    23.9677734,41.2070312 C24.0908209,41.3300787 24.1523438,41.501952 24.1523438,41.7226562 Z M23.9765625,41.7285156 C23.9765625,41.5423168 23.9298507,41.4020187 
    23.8364258,41.3076172 C23.7430008,41.2132157 23.6041676,41.1660156 23.4199219,41.1660156 L23.1787109,41.1660156 L23.1787109,42.3066406 L23.3808594,42.3066406 
    C23.578777,42.3066406 23.7275386,42.2579757 23.8271484,42.1606445 C23.9267583,42.0633133 23.9765625,41.9192718 23.9765625,41.7285156 Z M25.5488281,41.0224609 
    L25.5488281,41.9462891 C25.5488281,42.1090503 25.499675,42.2369787 25.4013672,42.3300781 C25.3030594,42.4231775 25.1679696,42.4697266 24.9960938,42.4697266 
    C24.8242179,42.4697266 24.691244,42.422852 24.597168,42.3291016 C24.503092,42.2353511 24.4560547,42.1064461 24.4560547,41.9423828 L24.4560547,41.0224609 
    L24.6220703,41.0224609 L24.6220703,41.9541016 C24.6220703,42.0732428 24.6546221,42.1647132 24.7197266,42.2285156 C24.7848311,42.292318 24.8805332,42.3242188 
    25.0068359,42.3242188 C25.1272792,42.3242188 25.2200518,42.2921553 25.2851562,42.2280273 C25.3502607,42.1638994 25.3828125,42.0719407 25.3828125,41.9521484 
    L25.3828125,41.0224609 L25.5488281,41.0224609 Z M26.5380859,41.1503906 C26.3811841,41.1503906 26.2573247,41.2026362 26.1665039,41.3071289 C26.0756831,41.4116216 
    26.0302734,41.5546866 26.0302734,41.7363281 C26.0302734,41.923178 26.0740556,42.0675451 26.1616211,42.1694336 C26.2491866,42.2713221 26.3740226,42.3222656 
    26.5361328,42.3222656 C26.6357427,42.3222656 26.7493483,42.3043622 26.8769531,42.2685547 L26.8769531,42.4140625 C26.7779943,42.4511721 26.6559252,42.4697266 
    26.5107422,42.4697266 C26.3004547,42.4697266 26.1381842,42.4059251 26.0239258,42.2783203 C25.9096674,42.1507155 25.8525391,41.9694022 25.8525391,41.734375 
    C25.8525391,41.5872388 25.8800453,41.4583339 25.9350586,41.3476562 C25.9900719,41.2369786 26.0694982,41.151693 26.1733398,41.0917969 C26.2771815,41.0319007 
    26.3994134,41.0019531 26.5400391,41.0019531 C26.6897794,41.0019531 26.8206375,41.0292966 26.9326172,41.0839844 L26.8623047,41.2265625 C26.7542312,41.175781 
    26.6461594,41.1503906 26.5380859,41.1503906 Z M27.6279297,42.4501953 L27.4619141,42.4501953 L27.4619141,41.1699219 L27.0097656,41.1699219 L27.0097656,41.0224609 
    L28.0800781,41.0224609 L28.0800781,41.1699219 L27.6279297,41.1699219 L27.6279297,42.4501953 Z M29.4257812,41.1503906 C29.2688794,41.1503906 29.14502,41.2026362 
    29.0541992,41.3071289 C28.9633785,41.4116216 28.9179688,41.5546866 28.9179688,41.7363281 C28.9179688,41.923178 28.9617509,42.0675451 29.0493164,42.1694336 
    C29.1368819,42.2713221 29.2617179,42.3222656 29.4238281,42.3222656 C29.523438,42.3222656 29.6370436,42.3043622 29.7646484,42.2685547 L29.7646484,42.4140625 
    C29.6656896,42.4511721 29.5436205,42.4697266 29.3984375,42.4697266 C29.18815,42.4697266 29.0258795,42.4059251 28.9116211,42.2783203 C28.7973627,42.1507155 
    28.7402344,41.9694022 28.7402344,41.734375 C28.7402344,41.5872388 28.7677406,41.4583339 28.8227539,41.3476562 C28.8777672,41.2369786 28.9571935,41.151693 
    29.0610352,41.0917969 C29.1648768,41.0319007 29.2871087,41.0019531 29.4277344,41.0019531 C29.5774747,41.0019531 29.7083328,41.0292966 29.8203125,41.0839844 
    L29.75,41.2265625 C29.6419265,41.175781 29.5338547,41.1503906 29.4257812,41.1503906 Z M30.8720703,42.4501953 L30.0761719,42.4501953 L30.0761719,41.0224609 
    L30.8720703,41.0224609 L30.8720703,41.1699219 L30.2421875,41.1699219 L30.2421875,41.6298828 L30.8339844,41.6298828 L30.8339844,41.7763672 L30.2421875,41.7763672 
    L30.2421875,42.3017578 L30.8720703,42.3017578 L30.8720703,42.4501953 Z M31.3544922,41.8564453 L31.3544922,42.4501953 L31.1884766,42.4501953 L31.1884766,41.0224609 
    L31.5800781,41.0224609 C31.7552092,41.0224609 31.8846024,41.0559892 31.9682617,41.1230469 C32.051921,41.1901045 32.09375,41.291015 32.09375,41.4257812 
    C32.09375,41.6145843 31.9980478,41.7421872 31.8066406,41.8085938 L32.1943359,42.4501953 L31.9980469,42.4501953 L31.6523438,41.8564453 L31.3544922,41.8564453 
    Z M31.3544922,41.7138672 L31.5820312,41.7138672 C31.6992193,41.7138672 31.785156,41.6905927 31.8398438,41.644043 C31.8945315,41.5974933 31.921875,41.5276697 
    31.921875,41.4345703 C31.921875,41.3401688 31.8940432,41.2721356 31.8383789,41.2304688 C31.7827146,41.1888019 31.69336,41.1679688 31.5703125,41.1679688 
    L31.3544922,41.1679688 L31.3544922,41.7138672 Z M32.8642578,42.4501953 L32.6982422,42.4501953 L32.6982422,41.1699219 L32.2460938,41.1699219 L32.2460938,41.0224609 
    L33.3164062,41.0224609 L33.3164062,41.1699219 L32.8642578,41.1699219 L32.8642578,42.4501953 Z M33.53125,42.4501953 L33.53125,41.0224609 L33.6972656,41.0224609 
    L33.6972656,42.4501953 L33.53125,42.4501953 Z M34.2548828,42.4501953 L34.0888672,42.4501953 L34.0888672,41.0224609 L34.8847656,41.0224609 L34.8847656,41.1699219 
    L34.2548828,41.1699219 L34.2548828,41.6923828 L34.8466797,41.6923828 L34.8466797,41.8398438 L34.2548828,41.8398438 L34.2548828,42.4501953 Z M35.1210938,42.4501953 
    L35.1210938,41.0224609 L35.2871094,41.0224609 L35.2871094,42.4501953 L35.1210938,42.4501953 Z M36.4746094,42.4501953 L35.6787109,42.4501953 L35.6787109,41.0224609 
    L36.4746094,41.0224609 L36.4746094,41.1699219 L35.8447266,41.1699219 L35.8447266,41.6298828 L36.4365234,41.6298828 L36.4365234,41.7763672 L35.8447266,41.7763672 
    L35.8447266,42.3017578 L36.4746094,42.3017578 L36.4746094,42.4501953 Z M37.9306641,41.7226562 C37.9306641,41.9583345 37.8666999,42.1385085 37.7387695,42.2631836 
    C37.6108392,42.3878587 37.426759,42.4501953 37.1865234,42.4501953 L36.7910156,42.4501953 L36.7910156,41.0224609 L37.2285156,41.0224609 C37.4505219,41.0224609 
    37.6230463,41.0839838 37.7460938,41.2070312 C37.8691412,41.3300787 37.9306641,41.501952 37.9306641,41.7226562 Z M37.7548828,41.7285156 C37.7548828,41.5423168 
    37.708171,41.4020187 37.6147461,41.3076172 C37.5213211,41.2132157 37.3824879,41.1660156 37.1982422,41.1660156 L36.9570312,41.1660156 L36.9570312,42.3066406 
    L37.1591797,42.3066406 C37.3570973,42.3066406 37.5058589,42.2579757 37.6054688,42.1606445 C37.7050786,42.0633133 37.7548828,41.9192718 37.7548828,41.7285156 
    Z M38.9345703,42.4501953 L38.7685547,42.4501953 L38.7685547,41.0224609 L39.5644531,41.0224609 L39.5644531,41.1699219 L38.9345703,41.1699219 L38.9345703,41.6923828 
    L39.5263672,41.6923828 L39.5263672,41.8398438 L38.9345703,41.8398438 L38.9345703,42.4501953 Z M41.0400391,41.734375 C41.0400391,41.9628918 40.9822597,42.1425775 
    40.8666992,42.2734375 C40.7511387,42.4042975 40.5904958,42.4697266 40.3847656,42.4697266 C40.1744781,42.4697266 40.0122076,42.4054368 39.8979492,42.2768555 
    C39.7836908,42.1482741 39.7265625,41.966798 39.7265625,41.7324219 C39.7265625,41.4999988 39.7838536,41.3198249 39.8984375,41.1918945 C40.0130214,41.0639642 
    40.1757802,41 40.3867188,41 C40.5917979,41 40.7519525,41.0651035 40.8671875,41.1953125 C40.9824225,41.3255215 41.0400391,41.5052072 41.0400391,41.734375 Z 
    M39.9023438,41.734375 C39.9023438,41.9277353 39.9435217,42.074381 40.0258789,42.1743164 C40.1082361,42.2742518 40.2278638,42.3242188 40.3847656,42.3242188 
    C40.5429695,42.3242188 40.6624345,42.2744146 40.7431641,42.1748047 C40.8238936,42.0751948 40.8642578,41.9283864 40.8642578,41.734375 C40.8642578,41.5423167 
    40.8240564,41.3966476 40.7436523,41.2973633 C40.6632483,41.1980789 40.5442716,41.1484375 40.3867188,41.1484375 C40.2285148,41.1484375 40.1082361,41.1984044 
    40.0258789,41.2983398 C39.9435217,41.3982752 39.9023438,41.5436188 39.9023438,41.734375 Z M41.5244141,41.8564453 L41.5244141,42.4501953 L41.3583984,42.4501953 
    L41.3583984,41.0224609 L41.75,41.0224609 C41.9251311,41.0224609 42.0545243,41.0559892 42.1381836,41.1230469 C42.2218429,41.1901045 42.2636719,41.291015 
    42.2636719,41.4257812 C42.2636719,41.6145843 42.1679697,41.7421872 41.9765625,41.8085938 L42.3642578,42.4501953 L42.1679688,42.4501953 L41.8222656,41.8564453 
    L41.5244141,41.8564453 Z M41.5244141,41.7138672 L41.7519531,41.7138672 C41.8691412,41.7138672 41.9550779,41.6905927 42.0097656,41.644043 C42.0644534,41.5974933 
    42.0917969,41.5276697 42.0917969,41.4345703 C42.0917969,41.3401688 42.0639651,41.2721356 42.0083008,41.2304688 C41.9526364,41.1888019 41.8632819,41.1679688 
    41.7402344,41.1679688 L41.5244141,41.1679688 L41.5244141,41.7138672 Z M19.0146484,45.4501953 L19.0146484,44.0224609 L19.1806641,44.0224609 L19.1806641,45.2998047 
    L19.8105469,45.2998047 L19.8105469,45.4501953 L19.0146484,45.4501953 Z M21.2519531,44.734375 C21.2519531,44.9628918 21.1941738,45.1425775 21.0786133,45.2734375 
    C20.9630528,45.4042975 20.8024099,45.4697266 20.5966797,45.4697266 C20.3863922,45.4697266 20.2241217,45.4054368 20.1098633,45.2768555 C19.9956049,45.1482741 
    19.9384766,44.966798 19.9384766,44.7324219 C19.9384766,44.4999988 19.9957677,44.3198249 20.1103516,44.1918945 C20.2249355,44.0639642 20.3876943,44 20.5986328,44 
    C20.803712,44 20.9638666,44.0651035 21.0791016,44.1953125 C21.1943365,44.3255215 21.2519531,44.5052072 21.2519531,44.734375 Z M20.1142578,44.734375 
    C20.1142578,44.9277353 20.1554358,45.074381 20.237793,45.1743164 C20.3201502,45.2742518 20.4397779,45.3242188 20.5966797,45.3242188 C20.7548836,45.3242188 
    20.8743486,45.2744146 20.9550781,45.1748047 C21.0358077,45.0751948 21.0761719,44.9283864 21.0761719,44.734375 C21.0761719,44.5423167 21.0359705,44.3966476 
    20.9555664,44.2973633 C20.8751624,44.1980789 20.7561857,44.1484375 20.5986328,44.1484375 C20.4404289,44.1484375 20.3201502,44.1984044 20.237793,44.2983398 
    C20.1554358,44.3982752 20.1142578,44.5436188 20.1142578,44.734375 Z M22.27197,44.2207028 C22.2576196,44.3058479 22.234997,44.3989461 22.2041016,44.5 
    L21.9248047,45.4501953 L21.7607422,45.4501953 L21.3808594,44.0224609 L21.5566406,44.0224609 L21.7822266,44.9042969 C21.8134737,45.0279836 21.8362586,45.139952 
    21.8505818,45.2402056 C21.8693057,45.1160039 21.8949592,45.0020694 21.9287109,44.890625 L22.1845703,44.0224609 L22.3603516,44.0224609 L22.6289062,44.8984375 
    C22.6601527,44.9993374 22.686517,45.1132533 22.7080001,45.2401888 C22.7217545,45.1411975 22.7448215,45.0312824 22.7783203,44.9023438 L23.0029297,44.0224609 
    L23.1787109,44.0224609 L22.796875,45.4501953 L22.6328125,45.4501953 L22.3447266,44.4941406 C22.3310546,44.4518227 22.3157553,44.3984378 22.2988281,44.3339844 
    C22.2819046,44.2695447 22.2731157,44.2308109 22.2724614,44.2177818 L22.27197,44.2207028 Z M24.5332031,44.1503906 C24.3763013,44.1503906 24.2524419,44.2026362 
    24.1616211,44.3071289 C24.0708003,44.4116216 24.0253906,44.5546866 24.0253906,44.7363281 C24.0253906,44.923178 24.0691727,45.0675451 24.1567383,45.1694336 
    C24.2443038,45.2713221 24.3691398,45.3222656 24.53125,45.3222656 C24.6308599,45.3222656 24.7444655,45.3043622 24.8720703,45.2685547 L24.8720703,45.4140625 
    C24.7731115,45.4511721 24.6510424,45.4697266 24.5058594,45.4697266 C24.2955719,45.4697266 24.1333014,45.4059251 24.019043,45.2783203 C23.9047846,45.1507155 
    23.8476562,44.9694022 23.8476562,44.734375 C23.8476562,44.5872388 23.8751625,44.4583339 23.9301758,44.3476562 C23.9851891,44.2369786 24.0646154,44.151693 
    24.168457,44.0917969 C24.2722987,44.0319007 24.3945305,44.0019531 24.5351562,44.0019531 C24.6848966,44.0019531 24.8157546,44.0292966 24.9277344,44.0839844 
    L24.8574219,44.2265625 C24.7493484,44.175781 24.6412766,44.1503906 24.5332031,44.1503906 Z M26.2675781,45.4501953 L26.1015625,45.4501953 L26.1015625,44.7783203 
    L25.3496094,44.7783203 L25.3496094,45.4501953 L25.1835938,45.4501953 L25.1835938,44.0224609 L25.3496094,44.0224609 L25.3496094,44.6298828 L26.1015625,44.6298828 
    L26.1015625,44.0224609 L26.2675781,44.0224609 L26.2675781,45.4501953 Z M27.4550781,45.4501953 L26.6591797,45.4501953 L26.6591797,44.0224609 L27.4550781,44.0224609 
    L27.4550781,44.1699219 L26.8251953,44.1699219 L26.8251953,44.6298828 L27.4169922,44.6298828 L27.4169922,44.7763672 L26.8251953,44.7763672 L26.8251953,45.3017578 
    L27.4550781,45.3017578 L27.4550781,45.4501953 Z M28.4033203,45.4501953 L27.9189453,44.1845703 L27.9111328,44.1845703 C27.9202474,44.2848312 27.9248047,44.4039707 
    27.9248047,44.5419922 L27.9248047,45.4501953 L27.7714844,45.4501953 L27.7714844,44.0224609 L28.0214844,44.0224609 L28.4736328,45.2001953 L28.4814453,45.2001953 
    L28.9375,44.0224609 L29.1855469,44.0224609 L29.1855469,45.4501953 L29.0195312,45.4501953 L29.0195312,44.5302734 C29.0195312,44.4248042 29.0240885,44.310222 
    29.0332031,44.1865234 L29.0253906,44.1865234 L28.5371094,45.4501953 L28.4033203,45.4501953 Z M29.5771484,45.4501953 L29.5771484,44.0224609 L29.7431641,44.0224609 
    L29.7431641,45.4501953 L29.5771484,45.4501953 Z M30.7460938,44.1503906 C30.5891919,44.1503906 30.4653325,44.2026362 30.3745117,44.3071289 C30.283691,44.4116216 
    30.2382812,44.5546866 30.2382812,44.7363281 C30.2382812,44.923178 30.2820634,45.0675451 30.3696289,45.1694336 C30.4571944,45.2713221 30.5820304,45.3222656 
    30.7441406,45.3222656 C30.8437505,45.3222656 30.9573561,45.3043622 31.0849609,45.2685547 L31.0849609,45.4140625 C30.9860021,45.4511721 30.863933,45.4697266 
    30.71875,45.4697266 C30.5084625,45.4697266 30.346192,45.4059251 30.2319336,45.2783203 C30.1176752,45.1507155 30.0605469,44.9694022 30.0605469,44.734375 
    C30.0605469,44.5872388 30.0880531,44.4583339 30.1430664,44.3476562 C30.1980797,44.2369786 30.277506,44.151693 30.3813477,44.0917969 C30.4851893,44.0319007 
    30.6074212,44.0019531 30.7480469,44.0019531 C30.8977872,44.0019531 31.0286453,44.0292966 31.140625,44.0839844 L31.0703125,44.2265625 C30.962239,44.175781 
    30.8541672,44.1503906 30.7460938,44.1503906 Z M32.2939453,45.4501953 L32.1162109,44.9960938 L31.5439453,44.9960938 L31.3681641,45.4501953 L31.2001953,45.4501953 
    L31.7646484,44.0166016 L31.9042969,44.0166016 L32.4658203,45.4501953 L32.2939453,45.4501953 Z M32.0644531,44.8466797 L31.8984375,44.4042969 C31.876953,44.348307 
    31.8548178,44.2796228 31.8320312,44.1982422 C31.8177083,44.2607425 31.7972007,44.3294267 31.7705078,44.4042969 L31.6025391,44.8466797 L32.0644531,44.8466797 Z 
    M32.6621094,45.4501953 L32.6621094,44.0224609 L32.828125,44.0224609 L32.828125,45.2998047 L33.4580078,45.2998047 L33.4580078,45.4501953 L32.6621094,45.4501953 
    Z M35.015625,45.4501953 L34.2197266,45.4501953 L34.2197266,44.0224609 L35.015625,44.0224609 L35.015625,44.1699219 L34.3857422,44.1699219 L34.3857422,44.6298828 
    L34.9775391,44.6298828 L34.9775391,44.7763672 L34.3857422,44.7763672 L34.3857422,45.3017578 L35.015625,45.3017578 L35.015625,45.4501953 Z M35.9638672,45.4501953 
    L35.4794922,44.1845703 L35.4716797,44.1845703 C35.4807943,44.2848312 35.4853516,44.4039707 35.4853516,44.5419922 L35.4853516,45.4501953 L35.3320312,45.4501953 
    L35.3320312,44.0224609 L35.5820312,44.0224609 L36.0341797,45.2001953 L36.0419922,45.2001953 L36.4980469,44.0224609 L36.7460938,44.0224609 L36.7460938,45.4501953 
    L36.5800781,45.4501953 L36.5800781,44.5302734 C36.5800781,44.4248042 36.5846354,44.310222 36.59375,44.1865234 L36.5859375,44.1865234 L36.0976562,45.4501953 
    L35.9638672,45.4501953 Z M37.1376953,45.4501953 L37.1376953,44.0224609 L37.3037109,44.0224609 L37.3037109,45.4501953 L37.1376953,45.4501953 Z M38.5009766,45.0703125 
    C38.5009766,45.1959642 38.4554041,45.293945 38.3642578,45.3642578 C38.2731115,45.4345707 38.1494148,45.4697266 37.9931641,45.4697266 C37.8238924,45.4697266 37.6936854,45.4479169 
    37.6025391,45.4042969 L37.6025391,45.2441406 C37.6611331,45.2688803 37.7249346,45.2884114 37.7939453,45.3027344 C37.8629561,45.3170574 37.9313148,45.3242188 37.9990234,45.3242188 
    C38.1097011,45.3242188 38.1930336,45.3032229 38.2490234,45.2612305 C38.3050133,45.2192381 38.3330078,45.1608077 38.3330078,45.0859375 C38.3330078,45.0364581 38.3230795,44.9959311 
    38.3032227,44.9643555 C38.2833658,44.9327798 38.250163,44.903646 38.2036133,44.8769531 C38.1570636,44.8502603 38.0862635,44.8199871 37.9912109,44.7861328 C37.8583978,44.7386065 
    37.7635094,44.682292 37.706543,44.6171875 C37.6495765,44.552083 37.6210938,44.4671229 37.6210938,44.3623047 C37.6210938,44.2522781 37.6624345,44.1647139 37.7451172,44.0996094 
    C37.8277999,44.0345049 37.9371738,44.0019531 38.0732422,44.0019531 C38.21517,44.0019531 38.3457025,44.0279945 38.4648438,44.0800781 L38.4130859,44.2246094 C38.2952468,44.17513 
    38.1806646,44.1503906 38.0693359,44.1503906 C37.9814449,44.1503906 37.9127607,44.1692706 37.8632812,44.2070312 C37.8138018,44.2447919 37.7890625,44.2972002 37.7890625,44.3642578 
    C37.7890625,44.4137372 37.798177,44.4542642 37.8164062,44.4858398 C37.8346355,44.5174155 37.8653969,44.5463866 37.9086914,44.5727539 C37.9519859,44.5991212 38.0182287,44.628255 
    38.1074219,44.6601562 C38.2571622,44.7135419 38.3601885,44.770833 38.4165039,44.8320312 C38.4728193,44.8932295 38.5009766,44.9726558 38.5009766,45.0703125 Z M39.5986328,45.0703125 
    C39.5986328,45.1959642 39.5530604,45.293945 39.4619141,45.3642578 C39.3707678,45.4345707 39.2470711,45.4697266 39.0908203,45.4697266 C38.9215486,45.4697266 38.7913416,45.4479169 
    38.7001953,45.4042969 L38.7001953,45.2441406 C38.7587894,45.2688803 38.8225908,45.2884114 38.8916016,45.3027344 C38.9606123,45.3170574 39.028971,45.3242188 39.0966797,45.3242188 
    C39.2073573,45.3242188 39.2906898,45.3032229 39.3466797,45.2612305 C39.4026696,45.2192381 39.4306641,45.1608077 39.4306641,45.0859375 C39.4306641,45.0364581 39.4207358,44.9959311 
    39.4008789,44.9643555 C39.381022,44.9327798 39.3478192,44.903646 39.3012695,44.8769531 C39.2547198,44.8502603 39.1839197,44.8199871 39.0888672,44.7861328 C38.956054,44.7386065 
    38.8611656,44.682292 38.8041992,44.6171875 C38.7472328,44.552083 38.71875,44.4671229 38.71875,44.3623047 C38.71875,44.2522781 38.7600907,44.1647139 38.8427734,44.0996094 
    C38.9254561,44.0345049 39.03483,44.0019531 39.1708984,44.0019531 C39.3128262,44.0019531 39.4433588,44.0279945 39.5625,44.0800781 L39.5107422,44.2246094 C39.3929031,44.17513 
    39.2783209,44.1503906 39.1669922,44.1503906 C39.0791011,44.1503906 39.0104169,44.1692706 38.9609375,44.2070312 C38.9114581,44.2447919 38.8867188,44.2972002 38.8867188,44.3642578 
    C38.8867188,44.4137372 38.8958332,44.4542642 38.9140625,44.4858398 C38.9322918,44.5174155 38.9630532,44.5463866 39.0063477,44.5727539 C39.0496421,44.5991212 39.115885,44.628255 
    39.2050781,44.6601562 C39.3548185,44.7135419 39.4578448,44.770833 39.5141602,44.8320312 C39.5704755,44.8932295 39.5986328,44.9726558 39.5986328,45.0703125 Z M39.890625,45.4501953 
    L39.890625,44.0224609 L40.0566406,44.0224609 L40.0566406,45.4501953 L39.890625,45.4501953 Z M41.6875,44.734375 C41.6875,44.9628918 41.6297206,45.1425775 41.5141602,45.2734375 
    C41.3985997,45.4042975 41.2379568,45.4697266 41.0322266,45.4697266 C40.8219391,45.4697266 40.6596685,45.4054368 40.5454102,45.2768555 C40.4311518,45.1482741 40.3740234,44.966798 
    40.3740234,44.7324219 C40.3740234,44.4999988 40.4313145,44.3198249 40.5458984,44.1918945 C40.6604823,44.0639642 40.8232411,44 41.0341797,44 C41.2392588,44 41.3994135,44.0651035 
    41.5146484,44.1953125 C41.6298834,44.3255215 41.6875,44.5052072 41.6875,44.734375 Z M40.5498047,44.734375 C40.5498047,44.9277353 40.5909827,45.074381 40.6733398,45.1743164 
    C40.755697,45.2742518 40.8753247,45.3242188 41.0322266,45.3242188 C41.1904305,45.3242188 41.3098954,45.2744146 41.390625,45.1748047 C41.4713546,45.0751948 41.5117188,44.9283864 
    41.5117188,44.734375 C41.5117188,44.5423167 41.4715173,44.3966476 41.3911133,44.2973633 C41.3107092,44.1980789 41.1917326,44.1484375 41.0341797,44.1484375 C40.8759758,44.1484375 
    40.755697,44.1984044 40.6733398,44.2983398 C40.5909827,44.3982752 40.5498047,44.5436188 40.5498047,44.734375 Z M43.1210938,45.4501953 L42.9316406,45.4501953 L42.1513672,44.2519531 
    L42.1435547,44.2519531 C42.1539714,44.3925788 42.1591797,44.5214838 42.1591797,44.6386719 L42.1591797,45.4501953 L42.0058594,45.4501953 L42.0058594,44.0224609 L42.1933594,44.0224609 
    L42.9716797,45.2158203 L42.9794922,45.2158203 C42.9781901,45.1982421 42.9752604,45.1417648 42.9707031,45.0463867 C42.9661458,44.9510086 42.9645182,44.8828127 42.9658203,44.8417969 
    L42.9658203,44.0224609 L43.1210938,44.0224609 L43.1210938,45.4501953 Z M44.3193359,45.0703125 C44.3193359,45.1959642 44.2737635,45.293945 44.1826172,45.3642578 C44.0914709,45.4345707 
    43.9677742,45.4697266 43.8115234,45.4697266 C43.6422518,45.4697266 43.5120447,45.4479169 43.4208984,45.4042969 L43.4208984,45.2441406 C43.4794925,45.2688803 43.5432939,45.2884114 
    43.6123047,45.3027344 C43.6813154,45.3170574 43.7496741,45.3242188 43.8173828,45.3242188 C43.9280604,45.3242188 44.0113929,45.3032229 44.0673828,45.2612305 C44.1233727,45.2192381 
    44.1513672,45.1608077 44.1513672,45.0859375 C44.1513672,45.0364581 44.1414389,44.9959311 44.121582,44.9643555 C44.1017252,44.9327798 44.0685224,44.903646 44.0219727,44.8769531 
    C43.9754229,44.8502603 43.9046229,44.8199871 43.8095703,44.7861328 C43.6767571,44.7386065 43.5818688,44.682292 43.5249023,44.6171875 C43.4679359,44.552083 43.4394531,44.4671229 
    43.4394531,44.3623047 C43.4394531,44.2522781 43.4807939,44.1647139 43.5634766,44.0996094 C43.6461593,44.0345049 43.7555332,44.0019531 43.8916016,44.0019531 C44.0335294,44.0019531 
    44.1640619,44.0279945 44.2832031,44.0800781 L44.2314453,44.2246094 C44.1136062,44.17513 43.999024,44.1503906 43.8876953,44.1503906 C43.7998042,44.1503906 43.73112,44.1692706 43.6816406,44.2070312 
    C43.6321612,44.2447919 43.6074219,44.2972002 43.6074219,44.3642578 C43.6074219,44.4137372 43.6165364,44.4542642 43.6347656,44.4858398 C43.6529949,44.5174155 43.6837563,44.5463866 43.7270508,44.5727539 
    C43.7703453,44.5991212 43.8365881,44.628255 43.9257812,44.6601562 C44.0755216,44.7135419 44.1785479,44.770833 44.2348633,44.8320312 C44.2911787,44.8932295 44.3193359,44.9726558 44.3193359,45.0703125 Z 
    M20.0927734,47.0224609 L20.0927734,47.9462891 C20.0927734,48.1090503 20.0436203,48.2369787 19.9453125,48.3300781 C19.8470047,48.4231775 19.7119149,48.4697266 19.5400391,48.4697266 C19.3681632,48.4697266 
    19.2351893,48.422852 19.1411133,48.3291016 C19.0470373,48.2353511 19,48.1064461 19,47.9423828 L19,47.0224609 L19.1660156,47.0224609 L19.1660156,47.9541016 C19.1660156,48.0732428 19.1985674,48.1647132 
    19.2636719,48.2285156 C19.3287764,48.292318 19.4244785,48.3242188 19.5507812,48.3242188 C19.6712246,48.3242188 19.7639971,48.2921553 19.8291016,48.2280273 C19.8942061,48.1638994 19.9267578,48.0719407 
    19.9267578,47.9521484 L19.9267578,47.0224609 L20.0927734,47.0224609 Z M20.4707031,48.4501953 L20.4707031,47.0224609 L20.6367188,47.0224609 L20.6367188,48.2998047 L21.2666016,48.2998047 L21.2666016,48.4501953 
    L20.4707031,48.4501953 Z M21.4609375,48.3466797 C21.4609375,48.3030597 21.4708658,48.2700196 21.4907227,48.2475586 C21.5105795,48.2250975 21.5390623,48.2138672 21.5761719,48.2138672 C21.6139325,48.2138672 
    21.6433918,48.2250975 21.6645508,48.2475586 C21.6857097,48.2700196 21.6962891,48.3030597 21.6962891,48.3466797 C21.6962891,48.3889976 21.685547,48.4215494 21.6640625,48.4443359 C21.642578,48.4671225 
    21.6132814,48.4785156 21.5761719,48.4785156 C21.5429686,48.4785156 21.5154623,48.4682618 21.4936523,48.4477539 C21.4718423,48.427246 21.4609375,48.3935549 21.4609375,48.3466797 Z M22.5527344,47.1503906 
    C22.3958325,47.1503906 22.2719731,47.2026362 22.1811523,47.3071289 C22.0903316,47.4116216 22.0449219,47.5546866 22.0449219,47.7363281 C22.0449219,47.923178 22.088704,48.0675451 22.1762695,48.1694336 
    C22.2638351,48.2713221 22.3886711,48.3222656 22.5507812,48.3222656 C22.6503911,48.3222656 22.7639968,48.3043622 22.8916016,48.2685547 L22.8916016,48.4140625 C22.7926427,48.4511721 22.6705736,48.4697266 
    22.5253906,48.4697266 C22.3151031,48.4697266 22.1528326,48.4059251 22.0385742,48.2783203 C21.9243158,48.1507155 21.8671875,47.9694022 21.8671875,47.734375 C21.8671875,47.5872388 21.8946937,47.4583339 
    21.949707,47.3476562 C22.0047203,47.2369786 22.0841466,47.151693 22.1879883,47.0917969 C22.2918299,47.0319007 22.4140618,47.0019531 22.5546875,47.0019531 C22.7044278,47.0019531 22.8352859,47.0292966 
    22.9472656,47.0839844 L22.8769531,47.2265625 C22.7688797,47.175781 22.6608078,47.1503906 22.5527344,47.1503906 Z M24.4023438,47.734375 C24.4023438,47.9628918 24.3445644,48.1425775 24.2290039,48.2734375 
    C24.1134434,48.4042975 23.9528005,48.4697266 23.7470703,48.4697266 C23.5367828,48.4697266 23.3745123,48.4054368 23.2602539,48.2768555 C23.1459955,48.1482741 23.0888672,47.966798 23.0888672,47.7324219 
    C23.0888672,47.4999988 23.1461583,47.3198249 23.2607422,47.1918945 C23.3753261,47.0639642 23.5380849,47 23.7490234,47 C23.9541026,47 24.1142572,47.0651035 24.2294922,47.1953125 C24.3447271,47.3255215 
    24.4023438,47.5052072 24.4023438,47.734375 Z M23.2646484,47.734375 C23.2646484,47.9277353 23.3058264,48.074381 23.3881836,48.1743164 C23.4705408,48.2742518 23.5901685,48.3242188 23.7470703,48.3242188 
    C23.9052742,48.3242188 24.0247392,48.2744146 24.1054688,48.1748047 C24.1861983,48.0751948 24.2265625,47.9283864 24.2265625,47.734375 C24.2265625,47.5423167 24.1863611,47.3966476 24.105957,47.2973633 
    C24.025553,47.1980789 23.9065763,47.1484375 23.7490234,47.1484375 C23.5908195,47.1484375 23.4705408,47.1984044 23.3881836,47.2983398 C23.3058264,47.3982752 23.2646484,47.5436188 23.2646484,47.734375 
    Z M25.3525391,48.4501953 L24.8681641,47.1845703 L24.8603516,47.1845703 C24.8694662,47.2848312 24.8740234,47.4039707 24.8740234,47.5419922 L24.8740234,48.4501953 L24.7207031,48.4501953 L24.7207031,47.0224609 
    L24.9707031,47.0224609 L25.4228516,48.2001953 L25.4306641,48.2001953 L25.8867188,47.0224609 L26.1347656,47.0224609 L26.1347656,48.4501953 L25.96875,48.4501953 L25.96875,47.5302734 C25.96875,47.4248042 
    25.9733072,47.310222 25.9824219,47.1865234 L25.9746094,47.1865234 L25.4863281,48.4501953 L25.3525391,48.4501953 Z M27.0439453,47.0224609 L26.5117188,48.4501953 L26.3496094,48.4501953 L26.8818359,47.0224609 
    L27.0439453,47.0224609 Z M27.8886719,47.7021484 L28.3740234,47.7021484 L28.3740234,48.3964844 C28.2985022,48.420573 28.2216801,48.438802 28.1435547,48.4511719 C28.0654293,48.4635417 27.9749354,48.4697266 
    27.8720703,48.4697266 C27.6559234,48.4697266 27.4876308,48.4054368 27.3671875,48.2768555 C27.2467442,48.1482741 27.1865234,47.9681001 27.1865234,47.7363281 C27.1865234,47.5878899 27.2163083,47.4578456 
    27.2758789,47.3461914 C27.3354495,47.2345372 27.4212234,47.1492516 27.5332031,47.090332 C27.6451829,47.0314125 27.7763664,47.0019531 27.9267578,47.0019531 C28.0791023,47.0019531 28.221028,47.0299476 
    28.3525391,47.0859375 L28.2880859,47.2324219 C28.159179,47.1777341 28.0351568,47.1503906 27.9160156,47.1503906 C27.7421866,47.1503906 27.6064458,47.2021479 27.5087891,47.3056641 C27.4111323,47.4091802 
    27.3623047,47.5527335 27.3623047,47.7363281 C27.3623047,47.9290374 27.409342,48.0751948 27.503418,48.1748047 C27.597494,48.2744146 27.7356762,48.3242188 27.9179688,48.3242188 C28.0169276,48.3242188 
    28.1136063,48.3128256 28.2080078,48.2900391 L28.2080078,47.8505859 L27.8886719,47.8505859 L27.8886719,47.7021484 Z M29.3447266,47.7021484 L29.8300781,47.7021484 L29.8300781,48.3964844 C29.7545569,48.420573 
    29.6777348,48.438802 29.5996094,48.4511719 C29.521484,48.4635417 29.4309901,48.4697266 29.328125,48.4697266 C29.1119781,48.4697266 28.9436855,48.4054368 28.8232422,48.2768555 C28.7027989,48.1482741 
    28.6425781,47.9681001 28.6425781,47.7363281 C28.6425781,47.5878899 28.672363,47.4578456 28.7319336,47.3461914 C28.7915042,47.2345372 28.8772781,47.1492516 28.9892578,47.090332 C29.1012375,47.0314125 
    29.2324211,47.0019531 29.3828125,47.0019531 C29.535157,47.0019531 29.6770827,47.0299476 29.8085938,47.0859375 L29.7441406,47.2324219 C29.6152337,47.1777341 29.4912115,47.1503906 29.3720703,47.1503906 
    C29.1982413,47.1503906 29.0625005,47.2021479 28.9648438,47.3056641 C28.867187,47.4091802 28.8183594,47.5527335 28.8183594,47.7363281 C28.8183594,47.9290374 28.8653967,48.0751948 28.9594727,48.1748047 
    C29.0535486,48.2744146 29.1917309,48.3242188 29.3740234,48.3242188 C29.4729823,48.3242188 29.569661,48.3128256 29.6640625,48.2900391 L29.6640625,47.8505859 L29.3447266,47.8505859 L29.3447266,47.7021484 
    Z M20.0927734,50.0224609 L20.0927734,50.9462891 C20.0927734,51.1090503 20.0436203,51.2369787 19.9453125,51.3300781 C19.8470047,51.4231775 19.7119149,51.4697266 19.5400391,51.4697266 C19.3681632,51.4697266 
    19.2351893,51.422852 19.1411133,51.3291016 C19.0470373,51.2353511 19,51.1064461 19,50.9423828 L19,50.0224609 L19.1660156,50.0224609 L19.1660156,50.9541016 C19.1660156,51.0732428 19.1985674,51.1647132 
    19.2636719,51.2285156 C19.3287764,51.292318 19.4244785,51.3242188 19.5507812,51.3242188 C19.6712246,51.3242188 19.7639971,51.2921553 19.8291016,51.2280273 C19.8942061,51.1638994 19.9267578,51.0719407 
    19.9267578,50.9521484 L19.9267578,50.0224609 L20.0927734,50.0224609 Z M20.4707031,51.4501953 L20.4707031,50.0224609 L20.6367188,50.0224609 L20.6367188,51.2998047 L21.2666016,51.2998047 L21.2666016,51.4501953 
    L20.4707031,51.4501953 Z M22.8681641,51.4501953 L21.9296875,51.4501953 L21.9296875,51.3105469 L22.3056641,50.9326172 C22.420248,50.8167312 22.495768,50.7340497 22.5322266,50.6845703 C22.5686851,50.6350909 
    22.5960286,50.5869143 22.6142578,50.5400391 C22.6324871,50.4931638 22.6416016,50.4427086 22.6416016,50.3886719 C22.6416016,50.3124996 22.6184898,50.2521161 22.5722656,50.2075195 C22.5260414,50.162923 
    22.4619145,50.140625 22.3798828,50.140625 C22.3206377,50.140625 22.2644859,50.1503905 22.2114258,50.1699219 C22.1583656,50.1894532 22.0992842,50.2249346 22.0341797,50.2763672 L21.9482422,50.1660156 
    C22.0797533,50.0566401 22.222981,50.0019531 22.3779297,50.0019531 C22.5120449,50.0019531 22.6171871,50.0362952 22.6933594,50.1049805 C22.7695316,50.1736657 22.8076172,50.2659499 22.8076172,50.3818359 
    C22.8076172,50.4723312 22.7822268,50.5618485 22.7314453,50.6503906 C22.6806638,50.7389327 22.5856127,50.8509108 22.4462891,50.9863281 L22.1337891,51.2919922 L22.1337891,51.2998047 L22.8681641,51.2998047 
    L22.8681641,51.4501953 Z M23.5458984,50.0019531 C23.6761074,50.0019531 23.7792965,50.0322263 23.8554688,50.0927734 C23.931641,50.1533206 23.9697266,50.2369786 23.9697266,50.34375 C23.9697266,50.4140629 
    23.9479169,50.4781898 23.9042969,50.5361328 C23.8606769,50.5940758 23.7910161,50.6468097 23.6953125,50.6943359 C23.8111985,50.7496748 23.8935544,50.8077796 23.9423828,50.8686523 C23.9912112,50.929525 
    24.015625,50.9999996 24.015625,51.0800781 C24.015625,51.1985683 23.9742843,51.2931312 23.8916016,51.3637695 C23.8089189,51.4344079 23.6956387,51.4697266 23.5517578,51.4697266 C23.3994133,51.4697266 
    23.282227,51.436361 23.2001953,51.3696289 C23.1181637,51.3028968 23.0771484,51.2083339 23.0771484,51.0859375 C23.0771484,50.9225252 23.1767568,50.7952479 23.3759766,50.7041016 C23.2861324,50.6533201 
    23.2216799,50.5984703 23.1826172,50.5395508 C23.1435545,50.4806312 23.1240234,50.4147139 23.1240234,50.3417969 C23.1240234,50.2382807 23.1622718,50.155762 23.2387695,50.0942383 C23.3152673,50.0327145 
    23.4176426,50.0019531 23.5458984,50.0019531 Z M23.2373047,51.0898438 C23.2373047,51.1679691 23.2644854,51.2288409 23.3188477,51.2724609 C23.3732099,51.3160809 23.4495438,51.3378906 23.5478516,51.3378906 
    C23.6448573,51.3378906 23.7203773,51.3151044 23.7744141,51.2695312 C23.8284508,51.2239581 23.8554688,51.1614587 23.8554688,51.0820312 C23.8554688,51.0188799 23.8300784,50.9627281 23.7792969,50.9135742 
    C23.7285154,50.8644203 23.6399746,50.816732 23.5136719,50.7705078 C23.4166662,50.8121747 23.3463544,50.8582354 23.3027344,50.9086914 C23.2591144,50.9591474 23.2373047,51.0195309 23.2373047,51.0898438 
    Z M23.5439453,50.1337891 C23.4625647,50.1337891 23.3987633,50.1533201 23.3525391,50.1923828 C23.3063149,50.2314455 23.2832031,50.2835283 23.2832031,50.3486328 C23.2832031,50.4085289 23.3024087,50.4599607 
    23.3408203,50.5029297 C23.379232,50.5458987 23.4501948,50.588867 23.5537109,50.6318359 C23.6468104,50.5927732 23.7127277,50.5507815 23.7514648,50.5058594 C23.790202,50.4609373 23.8095703,50.4085289 
    23.8095703,50.3486328 C23.8095703,50.2828773 23.7859703,50.2306317 23.7387695,50.1918945 C23.6915688,50.1531574 23.626628,50.1337891 23.5439453,50.1337891 Z M24.8173828,51.4501953 L24.6591797,51.4501953 
    L24.6591797,50.4326172 C24.6591797,50.3479813 24.6617838,50.267904 24.6669922,50.1923828 C24.6533202,50.2060548 24.6380209,50.2203775 24.6210938,50.2353516 C24.6041666,50.2503256 24.5266934,50.3138015 
    24.3886719,50.4257812 L24.3027344,50.3144531 L24.6806641,50.0224609 L24.8173828,50.0224609 L24.8173828,51.4501953 Z M25.8330078,50.0019531 C25.9632168,50.0019531 26.0664059,50.0322263 26.1425781,50.0927734 
    C26.2187504,50.1533206 26.2568359,50.2369786 26.2568359,50.34375 C26.2568359,50.4140629 26.2350263,50.4781898 26.1914062,50.5361328 C26.1477862,50.5940758 26.0781255,50.6468097 25.9824219,50.6943359 
    C26.0983079,50.7496748 26.1806638,50.8077796 26.2294922,50.8686523 C26.2783206,50.929525 26.3027344,50.9999996 26.3027344,51.0800781 C26.3027344,51.1985683 26.2613936,51.2931312 26.1787109,51.3637695 
    C26.0960282,51.4344079 25.9827481,51.4697266 25.8388672,51.4697266 C25.6865227,51.4697266 25.5693363,51.436361 25.4873047,51.3696289 C25.405273,51.3028968 25.3642578,51.2083339 25.3642578,51.0859375 
    C25.3642578,50.9225252 25.4638662,50.7952479 25.6630859,50.7041016 C25.5732417,50.6533201 25.5087893,50.5984703 25.4697266,50.5395508 C25.4306639,50.4806312 25.4111328,50.4147139 25.4111328,50.3417969 
    C25.4111328,50.2382807 25.4493811,50.155762 25.5258789,50.0942383 C25.6023767,50.0327145 25.704752,50.0019531 25.8330078,50.0019531 Z M25.5244141,51.0898438 C25.5244141,51.1679691 25.5515948,51.2288409 
    25.605957,51.2724609 C25.6603193,51.3160809 25.7366532,51.3378906 25.8349609,51.3378906 C25.9319666,51.3378906 26.0074867,51.3151044 26.0615234,51.2695312 C26.1155602,51.2239581 26.1425781,51.1614587 
    26.1425781,51.0820312 C26.1425781,51.0188799 26.1171878,50.9627281 26.0664062,50.9135742 C26.0156247,50.8644203 25.927084,50.816732 25.8007812,50.7705078 C25.7037756,50.8121747 25.6334638,50.8582354 
    25.5898438,50.9086914 C25.5462237,50.9591474 25.5244141,51.0195309 25.5244141,51.0898438 Z M25.8310547,50.1337891 C25.7496741,50.1337891 25.6858726,50.1533201 25.6396484,50.1923828 C25.5934242,50.2314455 
    25.5703125,50.2835283 25.5703125,50.3486328 C25.5703125,50.4085289 25.589518,50.4599607 25.6279297,50.5029297 C25.6663413,50.5458987 25.7373042,50.588867 25.8408203,50.6318359 C25.9339197,50.5927732 
    25.999837,50.5507815 26.0385742,50.5058594 C26.0773114,50.4609373 26.0966797,50.4085289 26.0966797,50.3486328 C26.0966797,50.2828773 26.0730797,50.2306317 26.0258789,50.1918945 C25.9786781,50.1531574 
    25.9137374,50.1337891 25.8310547,50.1337891 Z M30.2833333,29.3220445 L30.2833333,27.3333333 C30.1875,25.5125 31.4333333,23.7875 33.1583333,23.3083333 C31.7208333,24.075 30.8583333,25.6083333 30.7625,27.2375 
    L31.7208333,27.0458333 C32.8708333,26.7583333 33.7333333,25.8 33.7333333,24.65 L33.7333333,22.6375 L31.7208333,23.0208333 C30.5708333,23.3083333 29.6125,24.3625 29.6125,25.5125 L29.6125,29.1816366 
    C25.8285266,28.2309849 23,24.7863571 23,20.7208333 C23,15.9291667 26.9291667,12 31.7208333,12 C36.5125,12 40.4416667,15.9291667 40.4416667,20.7208333 C40.4416667,25.5125 36.5125,29.4416667 31.7208333,29.4416667 
    C31.2315869,29.4416667 30.7513321,29.4007045 30.2833333,29.3220445 Z M24.897254,23.1183761 C29.1221629,20.8480413 34.3195038,20.8480413 38.5444127,23.1183761 C38.7808192,22.3983306 38.9083333,21.6248869 
    38.9083333,20.8166667 C38.8125,16.7916667 35.65,13.6291667 31.7208333,13.6291667 C27.7916667,13.6291667 24.5333333,16.7916667 24.5333333,20.8166667 C24.5333333,21.6248869 24.6608474,22.3983306 
    24.897254,23.1183761 Z M34.4041667,20.5291667 L32.2958333,20.5291667 L32.2958333,16.3125 L33.2541667,16.3125 L33.2541667,19.5708333 L34.4041667,19.5708333 L34.4041667,20.5291667 Z M31.625,17.8458333 
    C31.625,18.5166667 31.1458333,18.9958333 30.475,18.9958333 C30.3791667,18.9958333 30.3791667,18.9958333 30.2833333,18.9958333 C29.6125,19.0916667 29.1333333,18.6125 29.0375,18.0375 C29.0375,17.9416667 
    29.0375,17.9416667 29.0375,17.8458333 L29.0375,14.7791667 L29.9958333,14.7791667 L29.9958333,17.8458333 C29.9958333,18.0375 30.1875,18.1333333 30.2833333,18.1333333 C30.3791667,18.1333333 30.5708333,17.9416667 
    30.5708333,17.8458333 L30.5708333,14.7791667 L31.5291667,14.7791667 L31.625,17.8458333 Z"></path>
  </symbol>

  <symbol id="location" viewBox="0 0 64 64">
    <path d="M32,21.9375 C35.2153846,21.9375 37.8461538,24.525 37.8461538,27.6875 C37.8461538,30.85 35.2153846,33.4375 32,33.4375 C28.7846154,33.4375 26.1538462,30.85 26.1538462,27.6875 C26.1538462,24.525 28.7846154,21.9375 32,21.9375 Z M32,24.8125 C30.3923077,24.8125 29.0769231,26.10625 29.0769231,27.6875 C29.0769231,29.26875 30.3923077,30.5625 32,30.5625 C33.6076923,30.5625 34.9230769,29.26875 34.9230769,27.6875 C34.9230769,26.10625 33.6076923,24.8125 32,24.8125 Z M32,9 C32,9 51,9 51,26.25 C51,41.63125 32,55 32,55 C32,55 13,40.9125 13,26.25 C13,9 32,9 32,9 Z M32,11.875 C29.0769231,12.01875 26.3,12.59375 23.5230769,13.8875 C18.4076923,16.1875 15.9230769,20.35625 15.9230769,26.25 C15.9230769,36.8875 27.6153846,47.525 32,51.2625 C36.5307692,47.66875 48.0769231,37.31875 48.0769231,26.25 C48.0769231,20.35625 45.5923077,16.1875 40.4769231,13.8875 C37.7,12.59375 34.9230769,12.01875 32,11.875 Z"></path>  
  </symbol>

  <symbol id="menu" viewBox="0 0 64 64">
    <path d="M16.4382979,51.0465116 L14.5787234,51.0465116 L10.8595745,40.5953488 L10.7617021,40.5953488 C10.8595745,42.1581395 10.8595745,43.6232558 10.8595745,44.9906977 L10.8595745,51.0465116 L9,51.0465116 L9,38.544186 L12.0340426,38.544186 L15.4595745,48.5069767 L15.5574468,48.5069767 L19.2765957,38.544186 L22.3106383,38.544186 L22.3106383,51.0465116 L20.3531915,51.0465116 L20.3531915,44.8930233 C20.3531915,44.3069767 20.3531915,43.427907 20.3531915,42.4511628 C20.3531915,41.3767442 20.4510638,40.7906977 20.4510638,40.5953488 L20.3531915,40.5953488 L16.4382979,51.0465116 Z M31.706383,51.144186 C31.2170213,51.2418605 30.6297872,51.2418605 29.8468085,51.144186 C28.2808511,51.144186 27.2042553,50.7534884 26.3234043,49.8744186 C25.4425532,49.0930233 25.0510638,47.8232558 25.0510638,46.3581395 C25.0510638,44.8930233 25.4425532,43.6232558 26.2255319,42.744186 C27.0085106,41.8651163 28.1829787,41.3767442 29.5531915,41.3767442 C30.8255319,41.3767442 31.9021277,41.7674419 32.6851064,42.5488372 C33.3702128,43.3302326 33.7617021,44.3069767 33.7617021,45.6744186 L33.7617021,46.7488372 L27.3021277,46.7488372 C27.4,47.7255814 27.5957447,48.4093023 28.0851064,48.8976744 C28.5744681,49.3860465 29.1617021,49.6790698 30.0425532,49.6790698 C30.6297872,49.6790698 31.1191489,49.5813953 31.6085106,49.4837209 C32.0978723,49.3860465 32.587234,49.2883721 33.1744681,48.9953488 L33.1744681,50.655814 C32.6851064,50.8511628 32.1957447,51.0465116 31.706383,51.144186 Z M31.1191489,43.5255814 C30.7276596,43.1348837 30.2382979,42.9395349 29.5531915,42.9395349 C28.8680851,42.9395349 28.3787234,43.1348837 27.987234,43.5255814 C27.5957447,43.9162791 27.4,44.5023256 27.3021277,45.2837209 L31.706383,45.2837209 C31.706383,44.5023256 31.5106383,43.9162791 31.1191489,43.5255814 Z M44.2340426,44.8930233 L44.2340426,51.144186 L42.1787234,51.144186 L42.1787234,45.2837209 C42.1787234,44.5023256 41.9829787,44.0139535 41.6893617,43.6232558 C41.3957447,43.2325581 41.0042553,43.0372093 40.3191489,43.0372093 C39.4382979,43.0372093 38.8510638,43.3302326 38.4595745,43.8186047 C38.0680851,44.3069767 37.8723404,45.1860465 37.8723404,46.3581395 L37.8723404,51.0465116 L35.8170213,51.0465116 L35.8170213,41.572093 L37.3829787,41.572093 L37.6765957,42.8418605 L37.7744681,42.8418605 C37.9702128,42.3534884 38.4595745,42.0604651 38.9489362,41.7674419 C39.4382979,41.4744186 40.0255319,41.3767442 40.7106383,41.3767442 C43.0595745,41.3767442 44.2340426,42.5488372 44.2340426,44.8930233 Z M55,51.0465116 L55,50.9488372 L53.3361702,50.9488372 L53.0425532,49.6790698 C52.7489362,50.1674419 52.3574468,50.4604651 51.8680851,50.7534884 C51.3787234,51.0465116 50.7914894,51.144186 50.106383,51.144186 C48.9319149,51.144186 48.0510638,50.8511628 47.4638298,50.2651163 C46.8765957,49.6790698 46.5829787,48.8 46.5829787,47.627907 L46.5829787,41.4744186 L48.6382979,41.4744186 L48.6382979,47.3348837 C48.6382979,48.1162791 48.8340426,48.6046512 49.1276596,48.9953488 C49.4212766,49.3860465 49.9106383,49.5813953 50.4978723,49.5813953 C51.3787234,49.5813953 51.9659574,49.2883721 52.3574468,48.8 C52.7489362,48.3116279 52.9446809,47.4325581 52.9446809,46.2604651 L52.9446809,41.572093 L55,41.572093 L55,51.0465116 Z M9,27 L55,27 L55,30 L9,30 L9,27 Z M9,19 L55,19 L55,22 L9,22 L9,19 Z M9,11 L55,11 L55,14 L9,14 L9,11 Z" id="path-1"></path>
  </symbol>

  <symbol id="menu-close" viewBox="0 0 64 64">
    <path d="M17.6,52.7 C17.1,52.5 16.6,52.5 16,52.5 C14.9,52.5 13.9,52.9 13.2,53.8 C12.5,54.9 12.1,56.1 12.2,57.4 C12.1,58.7 12.5,59.9 13.2,61 C13.9,61.8 15,62.2 16,62.1 C16.6,62.1 17.1,62 17.6,61.9 C18.1,61.8 18.7,61.7 19.2,61.5 L19.2,63.3 C18.1,63.7 17,63.9 15.8,63.9 C14.2,64 12.6,63.4 11.5,62.2 C10.4,60.8 9.9,59.1 10,57.3 C10,56.1 10.2,54.9 10.8,53.7 C11.2,52.8 12,51.9 12.9,51.4 C13.8,50.9 15,50.6 16.1,50.6 C17.3,50.6 18.6,50.8 19.7,51.4 L19,53.2 C18.5,53 18.1,52.8 17.6,52.7 Z M23.3,50 L23.3,63.8 L21.2,63.8 L21.2,50 L23.3,50 Z M33.5,55.2 C34.4,56.2 34.8,57.5 34.8,58.8 C34.9,60.2 34.5,61.5 33.6,62.6 C32.7,63.5 31.5,64 30.2,63.9 C29.4,63.9 28.5,63.7 27.8,63.3 C27.1,62.9 26.5,62.2 26.2,61.5 C25.8,60.7 25.6,59.7 25.6,58.8 C25.5,57.5 25.9,56.1 26.8,55.1 C27.7,54.2 28.9,53.7 30.2,53.8 C31.4,53.8 32.6,54.3 33.5,55.2 Z M28.3,56.4 C27.9,57.1 27.7,58 27.8,58.9 C27.8,61.2 28.6,62.3 30.3,62.3 C31.9,62.3 32.7,61.1 32.7,58.9 C32.7,56.6 31.8,55.5 30.2,55.5 C29.4,55.5 28.7,55.8 28.3,56.4 Z M43.3,59.8 C43.5,60.2 43.6,60.6 43.7,61 C43.8,61.8 43.4,62.7 42.7,63.2 C41.8,63.8 40.8,64.1 39.7,64 C38.6,64 37.6,63.8 36.6,63.4 L36.6,61.6 C37.6,62.1 38.7,62.4 39.8,62.4 C41.1,62.4 41.7,62 41.7,61.2 C41.7,61 41.6,60.8 41.5,60.6 C41.3,60.4 41.1,60.2 40.8,60.1 C40.4,59.9 40,59.7 39.5,59.5 C38.6,59.2 37.9,58.8 37.2,58.2 C36.8,57.7 36.6,57.1 36.6,56.5 C36.6,55.7 36.9,54.9 37.6,54.5 C38.4,54 39.3,53.7 40.3,53.8 C41.4,53.8 42.5,54 43.5,54.5 L42.8,56.1 C42,55.7 41.1,55.4 40.2,55.4 C39.1,55.4 38.6,55.7 38.6,56.3 C38.6,56.6 38.7,56.9 39,57.1 C39.5,57.5 40.2,57.8 40.8,58 C41.4,58.2 42,58.5 42.5,58.9 C42.8,59.1 43.1,59.4 43.3,59.8 Z M52,63.8 C51.4,63.9 50.8,64 50.3,64 C49,64.1 47.7,63.6 46.8,62.7 C45.9,61.7 45.4,60.3 45.5,59 C45.4,57.6 45.8,56.3 46.7,55.2 C47.5,54.2 48.7,53.7 49.9,53.8 C51,53.8 52.1,54.2 52.9,55 C53.7,55.9 54.1,57 54,58.2 L54,59.3 L47.5,59.3 C47.5,60.1 47.8,60.9 48.3,61.5 C48.8,62.1 49.6,62.3 50.3,62.3 C50.8,62.3 51.4,62.2 51.9,62.1 C52.5,62 53,61.8 53.5,61.6 L53.5,63.3 C53,63.5 52.5,63.7 52,63.8 Z M51.4,56 C51,55.6 50.4,55.4 49.9,55.5 C49.3,55.4 48.7,55.7 48.3,56.1 C47.9,56.6 47.6,57.2 47.6,57.9 L52,57.9 C52,57.2 51.8,56.5 51.4,56 Z M32,17.9 L17.9,32 L16,30.1 L30.1,16 L16.2,2.1 L18.1,0.2 L32.0231281,14.0768719 L46.1,0 L48,1.9 L33.9262895,15.9737105 L48.2,30.2 L46.3,32.2 L32,17.9 Z"></path>
  </symbol>

  <symbol id="play" viewBox="39 39 64 64">
    <path d="M71,48 C83.65,48 94,58.35 94,71 C94,83.65 83.65,94 71,94 C58.35,94 48,83.65 48,71 C48,58.35 58.35,48 71,48 Z M71,50.875 C59.93125,50.875 50.875,59.93125 50.875,71 C50.875,82.06875 59.93125,91.125 71,91.125 C82.06875,91.125 91.125,82.06875 91.125,71 C91.125,59.93125 82.06875,50.875 71,50.875 Z M67.7416667,64.1958333 L77.1333333,71.0958333 L67.7416667,77.9 L67.7416667,64.1958333 Z" id="path-1"></path>
  </symbol>

  <symbol id="primary-arrow" viewBox="0 0 64 64">
    <path d="M44.1764706,33 L9,33 L9,31 L44.1764706,31 L44.1764706,26 L55,32 L44.1764706,38 L44.1764706,33 Z"></path>
  </symbol>

  <symbol id="quote-end" viewBox="0 0 64 64">
    <path d="M27.35,25 C27.35,33.1 26.45,38.95 24.35,42.55 C21.5,47.5 17.3,51.4 12.05,53.5 L8,47.2 C11.15,46 13.85,43.9 15.5,40.9 C17.15,38.05 17.9,34.15 18.2,28.9 L9.35,28.9 L9.35,10 L27.35,10 L27.35,25 Z M56,25 C56,33.1 55.1,38.95 53,42.55 C50.3,47.5 45.95,51.25 40.7,53.5 L36.65,47.2 C39.8,46 42.5,43.9 44.15,40.9 C45.8,38.05 46.55,34.15 46.85,28.9 L38,28.9 L38,10 L56,10 L56,25 Z"></path>
  </symbol>

  <symbol id="quote-start" viewBox="0 0 64 64">
    <path d="M36.65,38.5 C36.65,30.4 37.55,24.55 39.65,20.95 C42.5,16 46.7,12.1 51.95,10 L56,16.3 C52.85,17.5 50.15,19.6 48.5,22.6 C46.85,25.45 46.1,29.35 45.8,34.6 L54.5,34.6 L54.5,53.5 L36.65,53.5 L36.65,38.5 Z M8,38.5 C8,30.4 8.9,24.55 11,20.95 C13.7,16 18.05,12.1 23.3,10 L27.35,16.3 C24.2,17.5 21.5,19.75 19.85,22.6 C18.2,25.45 17.45,29.35 17.15,34.6 L25.85,34.6 L25.85,53.5 L8,53.5 L8,38.5 Z"></path>
  </symbol>

  <symbol id="search" viewBox="0 0 64 64">
    <path d="M40.5911759,36.5911759 L56,52 L52,56 L36.5911759,40.5911759 C33.6266353,42.7384885 29.9710066,44 26,44 C16,44 8,36 8,26 C8,16 16,8 26,8 C30.8,8 35.4,9.8 38.8,13.2 C42.2,16.6 44,21.2 44,26 C44,29.9710066 42.7384885,33.6266353 40.5911759,36.5911759 Z M39.8,26.2 C40,18.4 33.8,12.2 26,12 C22.2,12 18.6,13.4 16,16 C13.4,18.6 11.8,22.2 11.8,25.8 C11.6,33.6 17.8,39.8 25.6,40 C33.4,40.2 39.6,34 39.8,26.2 Z"></path>
   </symbol>

  <symbol id="email" viewBox="0 0 64 64">
    <path d="M42,26.7272727 L35.0461538,31.7846154 L42,37 L42,38 L42,26.7272727 Z M40.7142857,38 L33.8456376,32.6577181 L32,34 L30.1543624,32.6577181 L23.2857143,38 L40.7142857,38 Z M22,38 L22,37 L28.9538462,31.7846154 L22,26.7272727 L22,38 Z M23.4285714,26 L32,32 L40.5714286,26 L23.4285714,26 Z M32,8 C45.254834,8 56,18.745166 56,32 C56,45.254834 45.254834,56 32,56 C18.745166,56 8,45.254834 8,32 C8,18.745166 18.745166,8 32,8 Z M32,11 C20.4020203,11 11,20.4020203 11,32 C11,43.5979797 20.4020203,53 32,53 C43.5979797,53 53,43.5979797 53,32 C53,20.4020203 43.5979797,11 32,11 Z M44,24 L44,40 L20,40 L20,24 L44,24 Z"></path>
  </symbol>

  <symbol id="swatch-book" viewBox="0 0 64 64">
    <path d="M44.3625,20.93125 L55,37.31875 L30.41875,51.55 L29.26875,55 L29.26875,54.7125 L29.125,55 L9,55 L9,9 L29.84375,9 L29.84375,11.875 L43.35625,15.75625 L40.625,23.0875 L44.3625,20.93125 Z M40.19375,26.25 L31.425,47.8125 L50.6875,36.3125 L43.2125,24.8125 L40.19375,26.25 Z M29.7,44.9375 L34.0125,33.4375 L37.03125,26.25 L40.05,17.625 L29.7,14.75 L29.7,44.9375 Z M26.825,32 L26.825,11.875 L12.01875,11.875 L12.01875,52.125 L26.825,52.125 L26.825,32 Z M20.7875,46.375 C20.7875,47.2375 20.2125,47.8125 19.35,47.8125 C18.4875,47.8125 17.9125,47.2375 17.9125,46.375 C17.9125,45.5125 18.4875,44.9375 19.35,44.9375 C20.2125,44.9375 20.7875,45.5125 20.7875,46.375 Z M23.80625,20.5 L14.89375,20.5 L14.89375,17.625 L23.80625,17.625 C23.80625,17.625 23.80625,20.5 23.80625,20.5 Z M23.80625,26.25 L14.89375,26.25 L14.89375,23.375 L23.80625,23.375 C23.80625,23.375 23.80625,26.25 23.80625,26.25 Z M23.80625,32 L14.89375,32 L14.89375,29.125 L23.80625,29.125 C23.80625,29.125 23.80625,32 23.80625,32 Z M23.80625,37.75 L14.89375,37.75 L14.89375,34.875 L23.80625,34.875 C23.80625,34.875 23.80625,37.75 23.80625,37.75 Z"></path>
  </symbol>

  <symbol id="information" viewBox="0 0 64 64">
    <path d="M32,8.1C18.8,8.1,8.1,18.8,8.1,32S18.8,55.9,32,55.9S55.9,45.2,55.9,32S45.2,8.1,32,8.1z M35.4,47.6h-6.8V25.9h6.8
	C35.4,25.9,35.4,47.6,35.4,47.6z M31.9,23.2c-2.1,0-3.6-1.5-3.5-3.4c0-2,1.4-3.4,3.6-3.4s3.6,1.5,3.6,3.4
             C35.6,21.7,34.2,23.2,31.9,23.2z"/>
  </symbol>

  <symbol id="facebook" viewBox="0 0 64 64">
    <path d="M32,8 C45.3,8 56,18.7 56,32 C56,45.3 45.3,56 32,56 C18.7,56 8,45.3 8,32 C8,18.7 18.7,8 32,8 Z M32,11 C20.4,11 11,20.4 11,32 C11,43.6 20.4,53 32,53 C43.6,53 53,43.6 53,32 C53,20.4 43.6,11 32,11 Z M33.6,43 L29.7,43 L29.7,33 L26.4,33 L26.4,29 L29.7,29 L29.7,26.2 C29.7,22.8 31.7,21 34.6,21 C35.6,21 36.5,21.1 37.5,21.2 L37.5,24.7 L35.5,24.7 C33.9,24.7 33.6,25.5 33.6,26.6 L33.6,29.1 L37.4,29.1 L36.9,33 L33.6,33 L33.6,43 Z"></path>
  </symbol>

  <symbol id="houzz" viewBox="0 0 64 64">
    <path d="M32,11 C20.4,11 11,20.4 11,32 C11,43.6 20.4,53 32,53 C43.6,53 53,43.6 53,32 C53,20.4 43.6,11 32,11 Z M32,8 C45.3,8 56,18.7 56,32 C56,45.3 45.3,56 32,56 C18.7,56 8,45.3 8,32 C8,18.7 18.7,8 32,8 Z M23,22 L27.7,22 L27.7,26.7 L41,30.5 L41,42 L34.4,42 L34.4,35.3 L29.7,35.3 L29.7,42 L23,42 L23,22 Z"></path>
  </symbol>

  <symbol id="instagram" viewBox="0 0 64 64">
    <path d="M32,11 C20.4,11 11,20.4 11,32 C11,43.6 20.4,53 32,53 C43.6,53 53,43.6 53,32 C53,20.4 43.6,11 32,11 Z M32,8 C45.3,8 56,18.7 56,32 C56,45.3 45.3,56 32,56 C18.7,56 8,45.3 8,32 C8,18.7 18.7,8 32,8 Z M32,23 C29.1,23 28.7,23 27.7,23 C24.7,23.1 23.3,24.5 23.2,27.5 C23.1,28.6 23.1,29 23.1,31.9 C23.1,34.8 23.1,35.2 23.1,36.3 C23.2,39.2 24.6,40.7 27.6,40.8 C28.7,40.9 29.1,40.9 32,40.9 C34.9,40.9 35.3,40.9 36.4,40.9 C39.4,40.8 40.8,39.4 40.9,36.4 C41,35.3 41,34.9 41,32 C41,29.1 41,28.7 41,27.6 C40.9,24.7 39.5,23.2 36.5,23.1 C35.3,23 34.9,23 32,23 Z M32,21 C35,21 35.4,21 36.5,21.1 C40.5,21.3 42.7,23.5 42.9,27.5 C43,28.6 43,29 43,32 C43,35 43,35.4 42.9,36.5 C42.7,40.5 40.5,42.7 36.5,42.9 C35.4,43 35,43 32,43 C29,43 28.6,43 27.5,42.9 C23.5,42.7 21.3,40.5 21.1,36.5 C21,35.4 21,35 21,32 C21,29 21,28.6 21.1,27.5 C21.3,23.5 23.5,21.3 27.5,21.1 C28.6,21 29,21 32,21 Z M32,26.4 C35.1,26.4 37.6,28.9 37.6,32 C37.6,35.1 35.1,37.6 32,37.6 C28.9,37.6 26.4,35.1 26.4,32 C26.4,28.9 28.9,26.4 32,26.4 Z M32,35.7 C34,35.7 35.7,34 35.7,32 C35.7,29.9 34.1,28.3 32,28.3 C29.9,28.3 28.3,29.9 28.3,32 C28.3,34.1 30,35.7 32,35.7 Z M37.9,24.8 C38.6,24.8 39.2,25.4 39.2,26.1 C39.2,26.8 38.6,27.4 37.9,27.4 C37.2,27.4 36.6,26.8 36.6,26.1 C36.6,25.4 37.2,24.8 37.9,24.8 Z"></path>
  </symbol>

  <symbol id="linkedin" viewBox="0 0 64 64">
    <path d="M32,11 C20.4,11 11,20.4 11,32 C11,43.6 20.4,53 32,53 C43.6,53 53,43.6 53,32 C53,20.4 43.6,11 32,11 Z M32,8 C45.3,8 56,18.7 56,32 C56,45.3 45.3,56 32,56 C18.7,56 8,45.3 8,32 C8,18.7 18.7,8 32,8 Z M26.5,42 L22.4,42 L22.4,28.6 L26.5,28.6 L26.5,42 Z M24.4,26.8 C23.1,26.8 22,25.7 22,24.4 C22,23.1 23.1,22 24.4,22 C25.7,22 26.8,23.1 26.8,24.4 C26.8,25.7 25.7,26.8 24.4,26.8 Z M42,42 L37.9,42 L37.9,35.5 C37.9,34 37.9,32 35.8,32 C33.7,32 33.3,33.7 33.3,35.4 L33.3,42 L29.2,42 L29.2,28.6 L33.2,28.6 L33.2,30.4 L33.3,30.4 C34.1,29 35.6,28.2 37.2,28.3 C41.4,28.3 42.2,31.1 42.2,34.7 L42.2,42 L42,42 Z"></path>
  </symbol>

  <symbol id="pinterest" viewBox="0 0 64 64">
    <path d="M32,11 C20.4,11 11,20.4 11,32 C11,43.6 20.4,53 32,53 C43.6,53 53,43.6 53,32 C53,20.4 43.6,11 32,11 Z M32,8 C45.3,8 56,18.7 56,32 C56,45.3 45.3,56 32,56 C18.7,56 8,45.3 8,32 C8,18.7 18.7,8 32,8 Z M32,21 C33.1,21 34.2,21.2 35.4,21.5 C41.2,23.3 44.4,29.5 42.6,35.3 C40.8,41.1 34.6,44.3 28.8,42.5 C29.4,41.6 29.9,40.6 30.2,39.6 L30.9,37 C31.5,37.8 32.4,38.3 33.4,38.3 C36.7,38.3 39.1,35.3 39.1,31.5 C39.1,31.4 39.1,31.4 39.1,31.3 C39,27.7 36,25 32.4,25.1 C27.6,25.1 25.1,28.2 25.1,31.7 C25.1,33.4 25.9,35.4 27.3,36 C27.5,36.1 27.7,36.1 27.7,35.9 L28,34.7 C28,34.6 28,34.5 27.9,34.4 C27.4,33.7 27.1,32.8 27.1,31.9 C27.1,31.8 27.1,31.7 27.1,31.6 C27.2,29 29.5,27 32.1,27.1 C32.2,27.1 32.4,27.1 32.5,27.1 C34.9,27.2 36.7,29.2 36.6,31.6 C36.6,34.5 35.1,36.6 33.1,36.6 C32.9,36.7 32.8,36.6 32.6,36.6 C31.8,36.3 31.3,35.5 31.5,34.6 C31.9,33.4 32.2,32.1 32.4,30.9 C32.4,30.8 32.4,30.8 32.4,30.7 C32.4,29.9 31.8,29.3 31,29.3 C29.9,29.3 29,30.5 29,32 C29,32.6 29.1,33.1 29.3,33.5 C29.3,33.5 28.2,38.1 28,39 C27.8,40.1 27.8,41.2 28,42.2 C23.8,40.6 21,36.5 21,32 C21,25.9 25.9,21 32,21 Z"></path>  
  </symbol>

  <symbol id="twitter" viewBox="0 0 64 64">
    <path d="M32,11 C20.4,11 11,20.4 11,32 C11,43.6 20.4,53 32,53 C43.6,53 53,43.6 53,32 C53,20.4 43.6,11 32,11 Z M32,8 C45.3,8 56,18.7 56,32 C56,45.3 45.3,56 32,56 C18.7,56 8,45.3 8,32 C8,18.7 18.7,8 32,8 Z M42,25.9 C41.5,26.7 40.8,27.4 39.9,28.1 C39.9,28.3 39.9,28.6 39.9,28.8 C39.8,35.2 34.6,40.2 28.2,40.1 C26,40.1 23.8,39.5 21.9,38.3 C24,38.5 26.2,37.9 27.9,36.6 C26.2,36.6 24.7,35.5 24.1,33.8 C24.8,33.9 25.4,33.9 26,33.7 C24.1,33.3 22.7,31.7 22.7,29.7 C23.3,30 23.9,30.2 24.6,30.2 C22.8,29 22.2,26.6 23.3,24.8 C25.4,27.3 28.5,28.8 31.8,29 C31.7,28.7 31.7,28.3 31.7,28 C31.7,25.8 33.6,24 35.8,24 C37,24 38,24.5 38.8,25.3 C39.7,25.1 40.6,24.8 41.4,24.3 C41.1,25.2 40.5,26 39.6,26.5 C40.5,26.4 41.2,26.2 42,25.9 Z"></path>
  </symbol>

  <symbol id="youtube" viewBox="0 0 64 64">
    <path d="M32,11 C20.4,11 11,20.4 11,32 C11,43.6 20.4,53 32,53 C43.6,53 53,43.6 53,32 C53,20.4 43.6,11 32,11 Z M32,8 C45.3,8 56,18.7 56,32 C56,45.3 45.3,56 32,56 C18.7,56 8,45.3 8,32 C8,18.7 18.7,8 32,8 Z M39,23.8 C42.6,24 43,26.3 43,32 C43,37.7 42.5,40 39,40.2 C35.7,40.4 28.3,40.4 25,40.2 C21.4,40 21,37.7 21,32 C21,26.3 21.4,24 25,23.8 C28.3,23.6 35.7,23.6 39,23.8 Z M28.7,35.8 L36.6,32 L28.7,28.3 L28.7,35.8 Z"></path>
  </symbol>

  <symbol id="check" viewBox="0 0 28 28">
    <path d="M6.5,16.714916 L10.0299885,13.1849275 L10.3360512,13.5007065 L13.6267126,16.8958333 L21.7642126,8.5 L25.2517126,12.1166667 L13.6267126,24 L6.80358598,17.0252484 L6.5,16.714916 Z" id="path-1"></path>
  </symbol>

  <symbol id="clipboard" viewBox="0 0 32 32">
    <path fill-rule="evenodd" clip-rule="evenodd" d="M22 8.66667H18.6667C18.6667 7.19584 17.4708 6 16 6C14.5292 6 13.3333 7.19584 13.3333 8.66667H10C8.89583 8.66667 8 9.5625 8 10.6667V25.3333C8 26.4375 8.89583 27.3333 10 27.3333H22C23.1042 27.3333 24 26.4375 24 25.3333V10.6667C24 9.5625 23.1042 8.66667 22 8.66667ZM16 7.66662C16.5542 7.66662 17 8.11245 17 8.66662C17 9.22079 16.5542 9.66662 16 9.66662C15.4458 9.66662 15 9.22079 15 8.66662C15 8.11245 15.4458 7.66662 16 7.66662ZM21.75 25.3333C21.8875 25.3333 22 25.2208 22 25.0833V10.9166C22 10.7791 21.8875 10.6666 21.75 10.6666H20V12.1666C20 12.4416 19.775 12.6666 19.5 12.6666H12.5C12.225 12.6666 12 12.4416 12 12.1666V10.6666H10.25C10.1125 10.6666 10 10.7791 10 10.9166V25.0833C10 25.2208 10.1125 25.3333 10.25 25.3333H21.75Z"/>
  </symbol>
</svg>